<?xml version="1.0" encoding="UTF-8"?>
<!-- Generator: visioncortex VTracer 0.6.4 -->
<svg version="1.1" xmlns="http://www.w3.org/2000/svg" width="669" height="720">
<path d="M0 0 C1.23525925 -0.01606293 2.47051849 -0.03212585 3.74320984 -0.04867554 C5.09418038 -0.06016551 6.44515867 -0.07077362 7.79614258 -0.08056641 C8.81961509 -0.08855192 8.81961509 -0.08855192 9.86376381 -0.09669876 C13.47801208 -0.12340712 17.09222616 -0.14278603 20.70654297 -0.15722656 C23.68732553 -0.17054233 26.66741967 -0.19835243 29.64794922 -0.23925781 C33.25656682 -0.28877509 36.86456224 -0.31337079 40.47350502 -0.32045364 C41.84296782 -0.32713549 43.21241841 -0.34227731 44.58168602 -0.36634445 C52.5433363 -0.49825732 58.93994923 -0.43864596 65.00317383 5.19287109 C69.5958977 10.96321647 70.12511488 15.08282902 70.16139221 22.31756592 C70.16633019 23.03560528 70.17126817 23.75364464 70.17635578 24.49344277 C70.19171376 26.8994348 70.20008679 29.30540018 70.20849609 31.71142578 C70.21807595 33.43613418 70.2280861 35.16084023 70.23849487 36.88554382 C70.26553829 41.5690269 70.28655093 46.25252005 70.30649686 50.93603802 C70.32835986 55.83011906 70.35574702 60.72416908 70.3825531 65.6182251 C70.43247572 74.88643356 70.47741617 84.15465924 70.52057546 93.42290139 C70.5699515 103.97420445 70.62486828 114.52547638 70.68025506 125.07674932 C70.7940685 146.78209425 70.90090895 168.48746889 71.00317383 190.19287109 C71.63854946 189.55565187 72.27392509 188.91843266 72.92855453 188.26190376 C88.37953521 172.76677987 103.83603014 157.27717565 119.29870224 141.79371834 C126.77615727 134.30594492 134.25172544 126.81630564 141.72290039 119.32226562 C148.23376951 112.79147989 154.74813092 106.26420166 161.26673341 99.74113452 C164.71906027 96.28619736 168.16959698 92.82951355 171.61595917 89.36862564 C174.85864986 86.11237839 178.10598316 82.86083524 181.35696411 79.61286545 C182.55033514 78.4189434 183.74198826 77.22330142 184.93180084 76.02583313 C186.55483481 74.39286819 188.18390093 72.7661685 189.81463623 71.14089966 C190.7253677 70.2283246 191.63609917 69.31574955 192.57442856 68.37552071 C196.793989 64.58351251 200.33245383 63.57091909 206.00317383 63.19287109 C219.11113177 64.85737369 228.89296055 78.79797989 237.82275391 87.66235352 C239.48833492 89.31129666 241.15927388 90.95484486 242.83544922 92.59301758 C245.27474447 94.97747578 247.69711051 97.37803611 250.11645508 99.78271484 C250.86333084 100.50692123 251.6102066 101.23112762 252.37971497 101.97727966 C257.46398816 107.08241134 260.43787091 111.51188721 261.32348633 118.84521484 C260.2920208 130.9133615 249.51809566 138.96065097 241.37646484 147.04663086 C240.21245545 148.21007502 239.04888842 149.37396192 237.88572693 150.53825378 C234.7502062 153.67434465 231.60858969 156.8042621 228.46578336 159.93304944 C225.17369281 163.21257575 221.88732429 166.49782618 218.60032654 169.78245544 C212.38552473 175.99105914 206.16564567 182.19455009 199.94389433 188.39618868 C192.85646139 195.46121049 185.77475595 202.53196155 178.69350922 209.60318291 C164.13639666 224.1394313 149.57216047 238.66852418 135.00317383 253.19287109 C135.88131965 253.19525945 136.75946547 253.1976478 137.66422176 253.20010853 C159.04786279 253.25928736 180.43139138 253.334856 201.81490993 253.42858601 C212.15589312 253.47351971 222.49684205 253.51294 232.83789062 253.53930664 C241.85289504 253.56230632 250.86779085 253.59572644 259.88270909 253.64157265 C264.65445722 253.66547824 269.42609797 253.68422449 274.19790459 253.690485 C278.69344737 253.69654789 283.18871547 253.71659122 287.68415642 253.74714661 C289.33000275 253.75590755 290.975885 253.75965345 292.62175369 253.75787926 C302.11853172 253.75087711 310.5491466 253.75446262 318.87817383 259.00537109 C324.03997892 264.31899398 325.11130655 270.42532286 325.16430664 277.57470703 C325.17391418 278.62640076 325.18352173 279.67809448 325.19342041 280.76165771 C325.19767029 281.88880188 325.20192017 283.01594604 325.20629883 284.17724609 C325.2119989 285.34741272 325.21769897 286.51757935 325.22357178 287.72320557 C325.23300903 290.19778543 325.23955069 292.6723778 325.2434082 295.14697266 C325.25310239 298.91510177 325.28413419 302.68268266 325.31567383 306.45068359 C325.32220557 308.85953454 325.32745537 311.26838936 325.33129883 313.67724609 C325.34364563 314.79629333 325.35599243 315.91534058 325.36871338 317.06829834 C325.34662031 324.90333138 324.72506035 331.80890407 319.69067383 338.06787109 C312.62302869 343.65624167 306.75036004 343.6099039 298.02124023 343.53344727 C296.71338562 343.53388535 295.40553101 343.53432343 294.05804443 343.53477478 C290.48400881 343.53563333 286.91027701 343.51803063 283.33631182 343.49705291 C279.5967314 343.47826253 275.85714354 343.47653381 272.11752319 343.47297668 C265.04154578 343.46366313 257.9657079 343.43905877 250.88979185 343.40892822 C242.83178462 343.37536267 234.77377064 343.35889279 226.71571088 343.34384191 C210.1447836 343.31250853 193.57399654 343.25976155 177.00317383 343.19287109 C176.5299002 341.9418946 176.05770109 340.69051158 175.5859375 339.43896484 C175.32286301 338.742146 175.05978851 338.04532715 174.78874207 337.32739258 C174.04781075 335.31415713 173.352679 333.29194285 172.67895508 331.25537109 C160.46102424 294.59709821 137.06739956 267.04411199 102.76660156 249.40722656 C93.75282186 244.91622295 84.60064809 241.22876465 75.00317383 238.19287109 C74.25229492 237.95487793 73.50141602 237.71688477 72.7277832 237.47167969 C67.52830938 235.85885924 62.29624192 234.46249216 57.00317383 233.19287109 C56.34188477 233.02770996 55.6805957 232.86254883 54.99926758 232.69238281 C34.23867605 227.70344345 8.67367399 227.94069889 -11.99682617 233.19287109 C-13.04531738 233.45028076 -13.04531738 233.45028076 -14.11499023 233.71289062 C-24.89495258 236.42606603 -34.99731716 240.36621903 -44.99682617 245.19287109 C-45.92809326 245.63904785 -45.92809326 245.63904785 -46.87817383 246.09423828 C-77.01842525 260.7562065 -103.13060039 285.22488108 -117.74682617 315.50537109 C-118.08713867 316.20202881 -118.42745117 316.89868652 -118.77807617 317.61645508 C-121.32841445 323.11500893 -123.24234322 328.78059836 -125.13452148 334.52954102 C-125.41075348 335.36375328 -125.68698547 336.19796555 -125.97158813 337.05745697 C-126.64834398 339.10204085 -127.32281535 341.14738065 -127.99682617 343.19287109 C-145.21693892 343.28638227 -162.43697223 343.35688343 -179.65728092 343.40011978 C-187.65328022 343.42073029 -195.6491216 343.4488218 -203.64501953 343.49462891 C-210.61562201 343.53454318 -217.58611009 343.5603149 -224.55682367 343.56922507 C-228.24657921 343.57443212 -231.93600754 343.58663851 -235.62565804 343.61579132 C-239.74830664 343.64810005 -243.87038921 343.64882757 -247.99316406 343.64697266 C-249.21164536 343.66135376 -250.43012665 343.67573486 -251.68553162 343.69055176 C-258.35878075 343.65804202 -262.60077254 343.24012212 -267.99682617 339.19287109 C-272.61790097 334.32200847 -274.24178805 329.89094303 -274.27148438 323.22851562 C-274.28101639 322.050242 -274.2905484 320.87196838 -274.30036926 319.6579895 C-274.29945786 318.39332855 -274.29854645 317.1286676 -274.29760742 315.82568359 C-274.30189255 314.51759735 -274.30617767 313.20951111 -274.31059265 311.86178589 C-274.31803964 309.09629253 -274.31777506 306.33092686 -274.3125 303.56542969 C-274.30671242 300.03602071 -274.32362585 296.50713773 -274.34684467 292.97781563 C-274.3651944 289.59375039 -274.36139521 286.20979822 -274.36010742 282.82568359 C-274.36931717 281.56507111 -274.37852692 280.30445862 -274.38801575 279.00564575 C-274.34982362 271.74235 -274.17817373 266.07506007 -269.41870117 260.26708984 C-268.86698242 259.80947266 -268.31526367 259.35185547 -267.74682617 258.88037109 C-266.9347168 258.17460938 -266.9347168 258.17460938 -266.10620117 257.45458984 C-260.95506465 254.37344707 -255.46798777 253.94002212 -249.58729553 253.91439819 C-248.87486 253.90860579 -248.16242447 253.90281339 -247.42839998 253.89684546 C-245.05931611 253.87994331 -242.69042819 253.87697748 -240.32128906 253.87402344 C-238.61583992 253.86471849 -236.91039532 253.85454898 -235.20495605 253.84358215 C-230.58775882 253.81633198 -225.97059202 253.80114752 -221.35333562 253.78815413 C-216.52331769 253.77250177 -211.69336169 253.74571826 -206.86338806 253.72012329 C-197.72278336 253.67337277 -188.58216695 253.63661061 -179.44150394 253.60345042 C-169.03279516 253.56520271 -158.62414863 253.51579947 -148.21549237 253.46546626 C-126.8093163 253.36220182 -105.4031008 253.27292357 -83.99682617 253.19287109 C-84.62796987 252.56541457 -85.25911356 251.93795805 -85.90938282 251.29148769 C-101.26874463 236.02047919 -116.61701093 220.73839716 -131.95301533 205.44393063 C-139.36967217 198.04789531 -146.79003221 190.65564827 -154.21923828 183.2722168 C-160.69483553 176.83649957 -167.16336093 170.39377213 -173.6235072 163.94254404 C-177.04406807 160.52719587 -180.46805632 157.11545135 -183.90053749 153.71208 C-187.13244147 150.5073632 -190.35479292 147.29334249 -193.57012558 144.07200241 C-194.75058613 142.8926406 -195.93446848 141.71669213 -197.12203407 140.54448509 C-198.74629999 138.94019816 -200.35766498 137.32394199 -201.96650696 135.70420837 C-202.87078588 134.80361663 -203.77506479 133.90302488 -204.7067461 132.97514248 C-208.16373201 128.77517013 -210.43330221 124.19395289 -210.37182617 118.63037109 C-210.38342773 117.5765625 -210.38342773 117.5765625 -210.39526367 116.50146484 C-208.27779243 104.23258736 -193.31571792 93.29624591 -184.88500977 84.84082031 C-182.86165954 82.80765514 -180.84923437 80.76405002 -178.83666992 78.72021484 C-177.53394308 77.41096547 -176.2305799 76.10234889 -174.92651367 74.79443359 C-174.33466278 74.1902359 -173.74281189 73.58603821 -173.13302612 72.96353149 C-167.64130468 67.50067153 -162.05849845 63.33186544 -153.99682617 63.19287109 C-141.78319121 65.29105431 -133.67750135 76.36985579 -125.34838867 84.7277832 C-124.194729 85.88172545 -123.0408481 87.03544655 -121.88676453 88.18896484 C-118.77559101 91.29985311 -115.66749612 94.41380047 -112.55997086 97.52833247 C-109.30399011 100.79059234 -106.04515044 104.04999381 -102.78662109 107.30970764 C-96.62604037 113.47338829 -90.46801179 119.63961213 -84.31091022 125.806768 C-77.29712482 132.83175623 -70.2804774 139.8538829 -63.26359558 146.87577808 C-48.83816639 161.31164134 -34.41631087 175.75107024 -19.99682617 190.19287109 C-19.99535961 189.28711303 -19.99389305 188.38135496 -19.99238205 187.44814968 C-19.95532545 165.40592473 -19.89632589 143.36385368 -19.81292343 121.3217535 C-19.77311932 110.66233506 -19.74073377 100.0029906 -19.72583008 89.34350586 C-19.7128207 80.05236035 -19.68587423 70.76137752 -19.64221311 61.47032362 C-19.6195823 56.55105433 -19.60391647 51.6319858 -19.60494232 46.71265984 C-19.60568797 42.08081369 -19.58777531 37.44941161 -19.55565834 32.81768036 C-19.54715158 31.11939329 -19.5454147 29.42105645 -19.55102348 27.72275734 C-19.55767349 25.39940709 -19.53972097 23.07746565 -19.51580811 20.7542572 C-19.51027735 18.80604773 -19.51027735 18.80604773 -19.50463486 16.81848049 C-18.74720961 11.4106799 -16.34891175 6.73181727 -11.93432617 3.31787109 C-7.80249584 0.32888745 -4.97793128 0.05881885 0 0 Z " fill="#232E60" transform="translate(296.996826171875,14.80712890625)"/>
<path d="M0 0 C28.49483564 -0.77669058 57.63095691 8.73760457 78.66796875 28.1875 C80.70297843 30.13348376 82.69447364 32.11683251 84.66796875 34.125 C85.42722656 34.88554687 86.18648438 35.64609375 86.96875 36.4296875 C96.27150442 46.29241355 103.04813324 59.01223759 108.03147888 71.55757141 C111.35655491 78.14759227 117.07431048 83.03650613 122.27368164 88.15307617 C123.47223421 89.34722121 124.66988843 90.54226849 125.86671448 91.73814392 C128.43638559 94.30196828 131.01221743 96.85937494 133.59309578 99.41191673 C137.674808 103.44895262 141.74216463 107.50024993 145.807724 111.55354309 C152.23861421 117.96170883 158.67878596 124.360452 165.12309593 130.75511962 C176.66846481 142.21170827 188.20260616 153.67957407 199.72636408 165.15789968 C203.7696217 169.1843547 207.81842642 173.20512317 211.8718015 177.22139204 C214.39119217 179.71948523 216.90651335 182.22164663 219.42084312 184.72483253 C220.58690889 185.88396279 221.7547143 187.04134602 222.92438507 188.19683838 C224.52175899 189.77527393 226.11282329 191.35981669 227.70252991 192.94596863 C228.59423921 193.83063907 229.48594851 194.71530951 230.4046793 195.62678814 C233.86136897 199.44227145 235.99392526 202.78813761 236.54296875 207.9375 C236.64351562 208.72769531 236.7440625 209.51789063 236.84765625 210.33203125 C236.25444527 219.55259316 230.89682739 224.60925844 224.6171875 230.76953125 C223.72562454 231.66113449 222.83406158 232.55273773 221.91548157 233.47135925 C220.03403456 235.34746022 218.1486238 237.21802096 216.25415039 239.08081055 C213.83639147 241.45883721 211.43674052 243.85418703 209.04252911 246.25589466 C206.74207696 248.56016741 204.42936606 250.85203424 202.1171875 253.14453125 C200.83251839 254.42889824 200.83251839 254.42889824 199.52189636 255.73921204 C194.03457874 261.11883028 189.35194923 265.5304665 181.29296875 265.625 C171.0734728 265.27974676 165.31946521 258.19221499 158.66796875 251.125 C158.38824219 251.82625 158.10851562 252.5275 157.8203125 253.25 C153.66377888 263.08668406 149.15073777 269.45710027 139.390625 274.1171875 C132.07973792 276.82336952 125.28872239 277.49477978 117.5546875 277.71484375 C116.47056076 277.75165756 115.38643402 277.78847137 114.26945496 277.82640076 C100.67667168 278.263485 87.07847217 278.48854868 73.48046875 278.6875 C72.80308277 278.69754562 72.12569679 278.70759125 71.42778397 278.71794128 C62.45961441 278.85065094 53.49132676 278.97014172 44.52282715 279.07818604 C42.03754427 279.10836767 39.55227273 279.13950454 37.0670166 279.17181396 C30.69700487 279.25436932 24.32733458 279.32048164 17.95687866 279.35617065 C16.10041153 279.36842987 14.24396849 279.38568907 12.38760376 279.40872192 C-4.83691813 279.61169744 -22.17644567 278.20920078 -38.76953125 273.3125 C-40.13005615 272.92457275 -40.13005615 272.92457275 -41.51806641 272.52880859 C-49.35620478 270.23556627 -56.88381486 267.49345791 -64.33203125 264.125 C-64.95706543 263.84462891 -65.58209961 263.56425781 -66.22607422 263.27539062 C-86.65218201 253.98753433 -110.63859799 239.16514988 -123.33203125 220.125 C-126.61599522 221.55773159 -128.74458999 223.31157784 -131.23925781 225.86865234 C-132.37128632 227.02027359 -132.37128632 227.02027359 -133.52618408 228.19515991 C-134.3335199 229.02536652 -135.14085571 229.85557312 -135.97265625 230.7109375 C-137.70023843 232.46382004 -139.42811224 234.21641519 -141.15625 235.96875 C-143.87006484 238.73212104 -146.58060832 241.49854186 -149.28564453 244.27050781 C-151.90157386 246.94707285 -154.52998375 249.61087772 -157.16015625 252.2734375 C-158.35901459 253.51267471 -158.35901459 253.51267471 -159.58209229 254.77694702 C-164.76027839 260.00073705 -169.61989675 264.27734974 -177.08984375 265.62109375 C-177.87101562 265.60175781 -178.6521875 265.58242188 -179.45703125 265.5625 C-180.24335938 265.56121094 -181.0296875 265.55992187 -181.83984375 265.55859375 C-187.19666185 264.62660816 -191.06001293 261.77279821 -194.83691406 258.00830078 C-195.67087708 257.18379425 -196.50484009 256.35928772 -197.36407471 255.50979614 C-198.24553162 254.62226654 -199.12698853 253.73473694 -200.03515625 252.8203125 C-200.9541571 251.90418182 -201.87315796 250.98805115 -202.82000732 250.04415894 C-204.75796428 248.1106088 -206.6904321 246.17177811 -208.61914062 244.22900391 C-211.08592806 241.74510157 -213.56597396 239.27494488 -216.05028152 236.8085804 C-218.42756011 234.44477278 -220.79331769 232.06957397 -223.16015625 229.6953125 C-224.494487 228.37009079 -224.494487 228.37009079 -225.85577393 227.01809692 C-226.6771283 226.18728607 -227.49848267 225.35647522 -228.34472656 224.50048828 C-229.0683136 223.77451447 -229.79190063 223.04854065 -230.53741455 222.30056763 C-233.41745751 218.80916568 -234.62481168 215.30991031 -234.70703125 210.8125 C-234.73539062 210.11511719 -234.76375 209.41773438 -234.79296875 208.69921875 C-233.04509338 198.93777919 -225.51810967 192.8384414 -218.74560547 186.2590332 C-217.54848912 185.08107768 -216.35234247 183.902136 -215.15708923 182.72229004 C-212.58858114 180.19004254 -210.01432016 177.66384468 -207.43566513 175.14193153 C-203.34389293 171.1381418 -199.27155356 167.11496531 -195.20266724 163.0879364 C-183.63183078 151.64111716 -172.04332682 140.21250235 -160.41796875 128.82104492 C-153.99165804 122.52370407 -147.58588942 116.20618048 -141.20128834 109.86654919 C-137.83118341 106.52199778 -134.45172388 103.188387 -131.04616928 99.87990761 C-111.08731048 80.5508239 -111.08731048 80.5508239 -98.19032669 56.17281151 C-95.95563981 50.84106058 -92.07645953 46.46378198 -88.33203125 42.125 C-87.22021484 40.80822266 -87.22021484 40.80822266 -86.0859375 39.46484375 C-66.06979878 16.46536374 -38.2867831 3.26295957 -8.01953125 0.4375 C-5.34697662 0.26758924 -2.67398312 0.14332908 0 0 Z M-67.30879211 84.4183197 C-71.0779741 90.70501107 -70.63909781 98.46442486 -70.6328125 105.52734375 C-70.63709763 106.60448135 -70.64138275 107.68161896 -70.64579773 108.79139709 C-70.65151728 111.05973612 -70.6520589 113.32809349 -70.64770508 115.59643555 C-70.64454422 119.04833527 -70.66803819 122.4993778 -70.69335938 125.95117188 C-70.69563266 128.16406143 -70.69633573 130.37695327 -70.6953125 132.58984375 C-70.70452225 133.61198471 -70.71373199 134.63412567 -70.72322083 135.6872406 C-70.67488058 143.25039849 -69.86839752 149.97167978 -65.01953125 156 C-59.86268658 160.07750509 -55.97416899 161.82417239 -49.33203125 161.125 C-43.2865568 159.32196376 -39.80243917 156.24909223 -36.33203125 151.125 C-35.29254332 148.00653621 -35.18053801 145.76860241 -35.13916016 142.49536133 C-35.12309723 141.34018509 -35.1070343 140.18500885 -35.09048462 138.99482727 C-35.04596234 133.70675193 -35.00452532 128.41882441 -34.98193359 123.13061523 C-34.9686214 120.34382098 -34.94081805 117.55776369 -34.89990234 114.77124023 C-34.84086406 110.74971301 -34.82324402 106.7289696 -34.80859375 102.70703125 C-34.78592438 101.46717972 -34.763255 100.22732819 -34.73989868 98.9499054 C-34.75735532 91.77784698 -35.36745711 86.55508833 -40.33203125 81.125 C-44.86118367 77.27390834 -49.0804053 76.53183651 -54.97265625 76.80859375 C-60.43729184 77.54143395 -63.98038228 80.0614591 -67.30879211 84.4183197 Z M-12.08203125 82.875 C-16.87767661 89.8020433 -16.63972713 96.73739125 -16.6328125 104.90234375 C-16.63709763 106.02766006 -16.64138275 107.15297638 -16.64579773 108.31239319 C-16.65152402 110.68506194 -16.65205388 113.05774824 -16.64770508 115.43041992 C-16.64454478 119.04701865 -16.6680279 122.66279909 -16.69335938 126.27929688 C-16.6956326 128.59114481 -16.69633576 130.90299493 -16.6953125 133.21484375 C-16.70452225 134.28903061 -16.71373199 135.36321747 -16.72322083 136.46995544 C-16.67714718 143.9991047 -15.95764423 149.93168692 -11.01953125 155.9375 C-7.10462964 159.12404782 -4.00297042 160.90839677 1.04296875 161.5625 C7.01150719 160.84215915 11.64186296 158.64292052 15.60546875 154.0625 C18.4118554 150.06552508 18.79803262 147.35320986 18.8449707 142.5871582 C18.85780594 141.45200272 18.87064117 140.31684723 18.88386536 139.14729309 C18.89125229 137.91919418 18.89863922 136.69109528 18.90625 135.42578125 C18.91432175 134.16162888 18.92239349 132.8974765 18.93070984 131.59501648 C18.9445523 128.91592749 18.95556756 126.23696159 18.96313477 123.55786133 C18.97416858 120.14274388 19.00853682 116.72828351 19.04830647 113.31339741 C19.08090536 110.03842452 19.08526341 106.76339163 19.09375 103.48828125 C19.11125809 102.2703035 19.12876617 101.05232574 19.14680481 99.79743958 C19.12706191 92.03059622 18.46679001 86.10629739 12.87890625 80.25 C4.15529719 74.90446934 -4.7388208 75.53178955 -12.08203125 82.875 Z M39.85546875 84.1875 C36.914314 88.13705067 36.53901428 90.77905143 36.4909668 95.57104492 C36.47813156 96.68617966 36.46529633 97.80131439 36.45207214 98.95024109 C36.44468521 100.15646622 36.43729828 101.36269135 36.4296875 102.60546875 C36.42161575 103.84742508 36.41354401 105.08938141 36.40522766 106.36897278 C36.39138567 109.00098398 36.38037032 111.63286991 36.37280273 114.26489258 C36.36395669 116.95457714 36.34311604 119.64374272 36.3112793 122.33325195 C36.26857706 126.21581595 36.25242781 130.09769896 36.2421875 133.98046875 C36.22467941 135.17657272 36.20717133 136.3726767 36.18913269 137.60502625 C36.20723561 144.60281828 36.87473375 149.1883498 40.66796875 155.125 C44.70198321 159.05557819 48.40118454 160.86838292 53.98046875 161.5 C59.78152322 160.91006226 63.97370621 158.86384839 68.04296875 154.6875 C70.83017388 150.29229191 71.91772019 146.73157684 71.94262695 141.52783203 C71.95215897 140.42964142 71.96169098 139.33145081 71.97151184 138.19998169 C71.97014473 136.43423294 71.97014473 136.43423294 71.96875 134.6328125 C71.97517769 132.80385941 71.97517769 132.80385941 71.98173523 130.93795776 C71.98747382 128.36082581 71.98798227 125.78367766 71.98364258 123.20654297 C71.98048602 119.27152742 72.00393728 115.3372662 72.02929688 111.40234375 C72.03157029 108.89583428 72.03227317 106.38932279 72.03125 103.8828125 C72.04045975 102.70969513 72.04966949 101.53657776 72.05915833 100.32791138 C72.01948179 93.29243055 71.77199412 87.66641076 66.94921875 82.1640625 C66.36140625 81.69742188 65.77359375 81.23078125 65.16796875 80.75 C64.58015625 80.26789063 63.99234375 79.78578125 63.38671875 79.2890625 C55.04860938 73.64188843 45.85160599 77.3566732 39.85546875 84.1875 Z " fill="#222D60" transform="translate(321.33203125,283.875)"/>
<path d="M0 0 C0.71905455 0.71933212 1.43810909 1.43866425 2.17895317 2.17979431 C4.82957136 4.82962218 7.482596 7.47700448 10.13674927 10.12329102 C11.15921619 11.14282643 12.18167681 12.16236818 13.20413208 13.18191528 C14.01423422 13.98969107 14.01423422 13.98969107 14.84070206 14.81378555 C27.29652794 27.23417707 39.74657163 39.66035137 52.1933918 52.08976746 C59.38582501 59.2718725 66.58013697 66.45207702 73.77880859 73.62792969 C80.06866376 79.89785728 86.35500097 86.17128706 92.63713157 92.44895458 C95.95956203 95.76877893 99.28372775 99.08682266 102.6121254 102.40066528 C105.74040947 105.51537653 108.86397024 108.63474701 111.98397064 111.75775528 C113.12909977 112.90233434 114.27594303 114.04520141 115.4246254 115.18621445 C116.99349407 116.74512006 118.55605549 118.31009153 120.11721802 119.87670898 C120.99287981 120.75052719 121.8685416 121.6243454 122.7707386 122.52464294 C126.203015 126.33581987 128.32802065 129.68249671 128.875 134.8125 C128.97554687 135.60269531 129.07609375 136.39289063 129.1796875 137.20703125 C128.58647652 146.42759316 123.22885864 151.48425844 116.94921875 157.64453125 C116.05765579 158.53613449 115.16609283 159.42773773 114.24751282 160.34635925 C112.36606581 162.22246022 110.48065505 164.09302096 108.58618164 165.95581055 C106.16842272 168.33383721 103.76877177 170.72918703 101.37456036 173.13089466 C99.07410821 175.43516741 96.76139731 177.72703424 94.44921875 180.01953125 C93.16454964 181.30389824 93.16454964 181.30389824 91.85392761 182.61421204 C86.36660999 187.99383028 81.68398048 192.4054665 73.625 192.5 C63.40550405 192.15474676 57.65149646 185.06721499 51 178 C50.72027344 178.70125 50.44054687 179.4025 50.15234375 180.125 C45.99581013 189.96168406 41.48276902 196.33210027 31.72265625 200.9921875 C24.41176917 203.69836952 17.62075364 204.36977978 9.88671875 204.58984375 C8.80259201 204.62665756 7.71846527 204.66347137 6.60148621 204.70140076 C-6.99129707 205.138485 -20.58949658 205.36354868 -34.1875 205.5625 C-34.86488598 205.57254562 -35.54227196 205.58259125 -36.24018478 205.59294128 C-45.20835434 205.72565094 -54.17664199 205.84514172 -63.1451416 205.95318604 C-65.63042448 205.98336767 -68.11569602 206.01450454 -70.60095215 206.04681396 C-76.97096388 206.12936932 -83.34063417 206.19548164 -89.71109009 206.23117065 C-91.56755722 206.24342987 -93.42400026 206.26068907 -95.28036499 206.28372192 C-112.50488688 206.48669744 -129.84441442 205.08420078 -146.4375 200.1875 C-147.3445166 199.92888184 -148.2515332 199.67026367 -149.18603516 199.40380859 C-157.02417353 197.11056627 -164.55178361 194.36845791 -172 191 C-172.93755127 190.57944336 -172.93755127 190.57944336 -173.89404297 190.15039062 C-194.32015076 180.86253433 -218.30656674 166.04014988 -231 147 C-234.28396397 148.43273159 -236.41255874 150.18657784 -238.90722656 152.74365234 C-240.03925507 153.89527359 -240.03925507 153.89527359 -241.19415283 155.07015991 C-242.00148865 155.90036652 -242.80882446 156.73057312 -243.640625 157.5859375 C-245.36820718 159.33882004 -247.09608099 161.09141519 -248.82421875 162.84375 C-251.53803359 165.60712104 -254.24857707 168.37354186 -256.95361328 171.14550781 C-259.56954261 173.82207285 -262.1979525 176.48587772 -264.828125 179.1484375 C-266.02698334 180.38767471 -266.02698334 180.38767471 -267.25006104 181.65194702 C-272.42824714 186.87573705 -277.2878655 191.15234974 -284.7578125 192.49609375 C-285.53898437 192.47675781 -286.32015625 192.45742188 -287.125 192.4375 C-287.91132813 192.43621094 -288.69765625 192.43492187 -289.5078125 192.43359375 C-294.8646306 191.50160816 -298.72798168 188.64779821 -302.50488281 184.88330078 C-303.33884583 184.05879425 -304.17280884 183.23428772 -305.03204346 182.38479614 C-305.91350037 181.49726654 -306.79495728 180.60973694 -307.703125 179.6953125 C-308.62212585 178.77918182 -309.54112671 177.86305115 -310.48797607 176.91915894 C-312.42593303 174.9856088 -314.35840085 173.04677811 -316.28710938 171.10400391 C-318.75389681 168.62010157 -321.23394271 166.14994488 -323.71825027 163.6835804 C-326.09552886 161.31977278 -328.46128644 158.94457397 -330.828125 156.5703125 C-332.16245575 155.24509079 -332.16245575 155.24509079 -333.52374268 153.89309692 C-334.34509705 153.06228607 -335.16645142 152.23147522 -336.01269531 151.37548828 C-336.73628235 150.64951447 -337.45986938 149.92354065 -338.2053833 149.17556763 C-341.08542626 145.68416568 -342.29278043 142.18491031 -342.375 137.6875 C-342.40335937 136.99011719 -342.43171875 136.29273438 -342.4609375 135.57421875 C-340.7027258 125.75505343 -333.0137326 119.47193666 -326.25488281 112.80078125 C-325.04162588 111.58865385 -323.82925152 110.37564252 -322.61769104 109.16181946 C-319.33973674 105.88272121 -316.04962894 102.61607132 -312.75714588 99.35157013 C-309.31332333 95.93281438 -305.880884 92.50266807 -302.44720459 89.07373047 C-295.94941802 82.58835813 -289.44150585 76.11324671 -282.92986465 69.64178848 C-275.51450605 62.2711958 -268.11055163 54.88919236 -260.7075181 47.50622368 C-245.48430551 32.32478026 -230.24687735 17.15767407 -215 2 C-213.6861167 5.94164989 -214.64487001 7.7726314 -215.8125 11.75 C-224.44928595 43.81616642 -220.51317036 81.42715839 -204.125 110.4375 C-189.76619314 134.13917734 -170.80734225 150.930877 -143.7243166 157.696455 C-123.82134672 162.38598448 -103.46423746 162.28192346 -83.13671875 162.1953125 C-80.52114471 162.19157213 -77.90556924 162.18873001 -75.28999329 162.18673706 C-69.17077815 162.18059138 -63.05163693 162.16427726 -56.93245393 162.14403808 C-49.95024814 162.12145994 -42.96803829 162.11063134 -35.98580492 162.10064721 C-21.65716406 162.07990237 -7.32858468 162.04486541 7 162 C6.93910296 145.67343908 6.86135352 129.34705487 6.76428509 113.0206728 C6.71958103 105.43770564 6.68011024 97.85478279 6.65356445 90.27172852 C6.63037617 83.65175874 6.59675285 77.03193226 6.55129844 70.41207665 C6.5276424 66.91650034 6.5087352 63.42106346 6.50238609 59.92540932 C6.72352144 32.53408861 6.72352144 32.53408861 0.59804821 6.03648853 C0 4 0 4 0 0 Z " fill="#4996D1" transform="translate(429,357)"/>
<path d="M0 0 C9.31836033 8.62748733 14.44303287 19.59548306 15.19543457 32.29995728 C15.28027393 36.21233943 15.30519518 40.12211395 15.30078125 44.03515625 C15.30467691 45.48286561 15.30901334 46.93057384 15.31376648 48.37828064 C15.32118836 51.39813968 15.32096594 54.41788171 15.31567383 57.43774414 C15.30986998 61.28977037 15.32685151 65.14131719 15.3500185 68.9932642 C15.36481012 71.97800959 15.36562045 74.96264075 15.36250877 77.94741631 C15.36301878 79.36705923 15.36819573 80.78670909 15.37832069 82.20631599 C15.48117234 98.63378384 15.48117234 98.63378384 10.38671875 105.0234375 C9.82597656 105.46945312 9.26523437 105.91546875 8.6875 106.375 C7.85798828 107.06722656 7.85798828 107.06722656 7.01171875 107.7734375 C2.61735459 110.45271973 -1.76299616 111.25158791 -6.84667969 111.30639648 C-7.9751532 111.32238388 -9.10362671 111.33837128 -10.26629639 111.35484314 C-11.47263733 111.36020584 -12.67897827 111.36556854 -13.921875 111.37109375 C-15.17703918 111.38012222 -16.43220337 111.3891507 -17.72540283 111.39845276 C-20.3782791 111.41294198 -23.03072521 111.42263323 -25.68359375 111.42553711 C-29.05716933 111.43090743 -32.42953985 111.4685499 -35.80277634 111.51428127 C-39.05073548 111.55146336 -42.29873186 111.55257886 -45.546875 111.55859375 C-46.74511902 111.57812607 -47.94336304 111.59765839 -49.17791748 111.61778259 C-56.78842382 111.57724687 -62.68316772 110.43444923 -69 106 C-73.3918236 101.34454409 -74.12687831 96.53624926 -74.17700195 90.33227539 C-74.18357315 89.65860931 -74.19014435 88.98494324 -74.19691467 88.29086304 C-74.21663047 86.05979286 -74.22831233 83.82879028 -74.23828125 81.59765625 C-74.24235678 80.83207335 -74.2464323 80.06649044 -74.25063133 79.27770805 C-74.27149435 75.21793769 -74.28578963 71.15820104 -74.29516602 67.09838867 C-74.30617314 62.93264526 -74.34050524 58.76744449 -74.38033772 54.60189152 C-74.40667654 51.37679656 -74.41487348 48.15182684 -74.41844749 44.92663383 C-74.42327664 43.39304416 -74.43478392 41.85945866 -74.45348549 40.32597542 C-74.62929744 24.94160326 -71.35242272 12.72960432 -60.6875 1.25 C-43.84640905 -14.77500284 -17.65662305 -14.51406812 0 0 Z " fill="#242F61" transform="translate(352,587)"/>
<path d="M0 0 C0.16435547 1.31097656 0.16435547 1.31097656 0.33203125 2.6484375 C0.86334082 6.76932638 1.42598629 10.88488765 2 15 C2.09651855 15.7110791 2.19303711 16.4221582 2.29248047 17.15478516 C5.5753553 40.84646805 12.87336494 64.62927835 27.86425781 83.65185547 C30.30492704 86.76960718 31.75556952 89.01569168 32 93 C30.61756897 95.13087463 30.61756897 95.13087463 28.47680664 97.26782227 C27.2841494 98.47916588 27.2841494 98.47916588 26.06739807 99.71498108 C25.19050827 100.57345139 24.31361847 101.43192169 23.41015625 102.31640625 C22.51767685 103.20988266 21.62519745 104.10335907 20.70567322 105.02391052 C18.8098076 106.91508787 16.90922637 108.79932709 14.99780273 110.67456055 C12.56331062 113.06393575 10.15130833 115.47454366 7.74607182 117.89332676 C5.4362013 120.21154703 3.11022834 122.51344788 0.78515625 124.81640625 C-0.50285133 126.10714806 -0.50285133 126.10714806 -1.81687927 127.42396545 C-7.16672076 132.64995423 -12.16466012 137.13018674 -19.7578125 138.49609375 C-20.53898437 138.47675781 -21.32015625 138.45742188 -22.125 138.4375 C-22.91132813 138.43621094 -23.69765625 138.43492187 -24.5078125 138.43359375 C-29.8646306 137.50160816 -33.72798168 134.64779821 -37.50488281 130.88330078 C-38.33884583 130.05879425 -39.17280884 129.23428772 -40.03204346 128.38479614 C-40.91350037 127.49726654 -41.79495728 126.60973694 -42.703125 125.6953125 C-43.62212585 124.77918182 -44.54112671 123.86305115 -45.48797607 122.91915894 C-47.42593303 120.9856088 -49.35840085 119.04677811 -51.28710938 117.10400391 C-53.75389681 114.62010157 -56.23394271 112.14994488 -58.71825027 109.6835804 C-61.09552886 107.31977278 -63.46128644 104.94457397 -65.828125 102.5703125 C-66.71767883 101.68683136 -67.60723267 100.80335022 -68.52374268 99.89309692 C-69.34509705 99.06228607 -70.16645142 98.23147522 -71.01269531 97.37548828 C-71.73628235 96.64951447 -72.45986938 95.92354065 -73.2053833 95.17556763 C-76.08542626 91.68416568 -77.29278043 88.18491031 -77.375 83.6875 C-77.40335937 82.99011719 -77.43171875 82.29273438 -77.4609375 81.57421875 C-76.11056712 74.03274348 -71.35790662 68.77994967 -66.06005859 63.57421875 C-65.37018356 62.88054703 -64.68030853 62.18687531 -63.9695282 61.47218323 C-61.70546134 59.20075554 -59.42740695 56.94396732 -57.1484375 54.6875 C-55.56637846 53.10782681 -53.98505983 51.52741178 -52.40444946 49.94628906 C-49.10032841 46.64528771 -45.7896213 43.35109075 -42.47363281 40.06201172 C-38.2149402 35.83743686 -33.96967224 31.59967534 -29.72876549 27.35725403 C-26.4695356 24.09856653 -23.20513121 20.84510597 -19.93892288 17.59341431 C-18.37076235 16.03163248 -16.80382286 14.46862367 -15.23810959 12.90438843 C-13.05744714 10.72803963 -10.87034281 8.55839076 -8.68115234 6.390625 C-8.03072464 5.73929092 -7.38029694 5.08795685 -6.7101593 4.41688538 C-2.22896344 0 -2.22896344 0 0 0 Z " fill="#232E60" transform="translate(164,411)"/>
<path d="M0 0 C2.8465198 1.29462375 4.90880647 2.65811485 7.11830139 4.86433411 C8.00353233 5.74110558 8.00353233 5.74110558 8.90664673 6.6355896 C9.54210419 7.27509552 10.17756165 7.91460144 10.83227539 8.57348633 C11.51079056 9.24849686 12.18930573 9.92350739 12.88838196 10.61897278 C15.12986453 12.85165331 17.36395233 15.09157046 19.59765625 17.33203125 C21.1538771 18.88690486 22.71039475 20.44148148 24.26719666 21.99577332 C27.5294593 25.25508663 30.78807534 28.51799178 34.04418945 31.78344727 C38.21601681 35.96665945 42.39674477 40.14084242 46.58025455 44.31236744 C49.79662705 47.52150819 53.0082148 50.73540326 56.21838188 53.95075035 C57.75788024 55.49158205 59.2988634 57.0309317 60.84135628 58.56876564 C62.99815743 60.72048117 65.14843203 62.87851592 67.29711914 65.03833008 C67.93460083 65.67176331 68.57208252 66.30519653 69.22888184 66.95782471 C73.63550582 71.40676159 77.18725603 75.36229516 77.875 81.8125 C77.97554687 82.60269531 78.07609375 83.39289063 78.1796875 84.20703125 C77.58647652 93.42759316 72.22885864 98.48425844 65.94921875 104.64453125 C65.05765579 105.53613449 64.16609283 106.42773773 63.24751282 107.34635925 C61.36606581 109.22246022 59.48065505 111.09302096 57.58618164 112.95581055 C55.16842272 115.33383721 52.76877177 117.72918703 50.37456036 120.13089466 C48.07410821 122.43516741 45.76139731 124.72703424 43.44921875 127.01953125 C42.16454964 128.30389824 42.16454964 128.30389824 40.85392761 129.61421204 C35.36660999 134.99383028 30.68398048 139.4054665 22.625 139.5 C13.3714318 139.18737945 8.19047938 133.52054541 1.78515625 127.37890625 C-2.34273112 121.87806728 -1.04466984 114.17194901 -0.87890625 107.6171875 C-0.82988795 105.25561749 -0.78098376 102.89404511 -0.73217773 100.5324707 C-0.70437225 99.28470856 -0.67656677 98.03694641 -0.6479187 96.75137329 C-0.50218659 90.13792629 -0.37598687 83.52414444 -0.2578125 76.91015625 C-0.24553305 76.2260713 -0.23325359 75.54198635 -0.22060204 74.83717155 C0.06381386 58.66251908 0.08697939 42.48923216 0.0625 26.3125 C0.06157726 25.64513573 0.06065453 24.97777145 0.05970383 24.29018402 C0.04823185 16.19342721 0.02896821 8.09671291 0 0 Z " fill="#232E60" transform="translate(480,410)"/>
</svg>
