<?xml version="1.0" encoding="UTF-8"?>
<!-- Generator: visioncortex VTracer 0.6.4 -->
<svg version="1.1" xmlns="http://www.w3.org/2000/svg" width="427" height="360">
<path d="M0 0 C0.91278662 -0.00226556 1.82557324 -0.00453111 2.76602006 -0.00686532 C5.81963258 -0.01318713 8.87320051 -0.01237712 11.92681885 -0.0115509 C14.11834775 -0.01454355 16.30987613 -0.01794632 18.50140381 -0.02172852 C24.45194622 -0.03056251 30.40247424 -0.03290639 36.35302258 -0.0335443 C40.07218513 -0.03425521 43.79134403 -0.03639031 47.51050568 -0.03904152 C59.82000839 -0.0478159 72.12950232 -0.05246148 84.43900821 -0.05171105 C85.10207556 -0.05167109 85.76514292 -0.05163113 86.44830322 -0.05158997 C87.11218482 -0.05154909 87.77606641 -0.0515082 88.46006563 -0.05146609 C99.21324362 -0.05105985 109.96638655 -0.06062461 120.71955439 -0.07472833 C131.77357675 -0.08911166 142.82758119 -0.09581452 153.88161302 -0.09513456 C160.08244537 -0.09487982 166.28323806 -0.09771779 172.48406219 -0.10831261 C178.31827238 -0.1180088 184.1524051 -0.11806228 189.98661804 -0.11079597 C192.12389998 -0.10975199 194.26118677 -0.11210192 196.39846039 -0.11815643 C199.32432435 -0.12590582 202.24992276 -0.12121204 205.17578125 -0.11352539 C206.43330818 -0.12124074 206.43330818 -0.12124074 207.71623969 -0.12911195 C226.97325649 -0.01792538 247.46423011 8.40775219 261.84185791 21.13371277 C263.06968994 22.16625183 263.06968994 22.16625183 264.32232666 23.21965027 C283.05936203 39.3771543 292.5544044 60.00190925 295.58013916 84.18058777 C295.8242025 86.0690744 295.8242025 86.0690744 296.07319641 87.99571228 C296.67817403 92.70648283 297.26134342 97.41987286 297.84185791 102.13371277 C297.96137062 103.10398407 298.08088333 104.07425537 298.20401764 105.07392883 C300.27124693 121.8852099 302.29545999 138.70165092 304.31494141 155.51872253 C305.23393299 163.16680024 306.15617093 170.81448726 307.07784462 178.46224213 C307.82623598 184.67483511 308.5729098 190.88762564 309.31582642 197.10087585 C310.53325169 207.27921497 311.75120846 217.45718823 313.02183056 227.62904739 C313.50297953 231.48464262 313.97782474 235.34100154 314.45202827 239.19745636 C314.66792481 240.9381496 314.8869727 242.67845576 315.10963249 244.41829681 C316.84695061 257.99876878 318.17707725 271.5395042 315.27935791 285.07121277 C315.10444824 285.90966736 314.92953857 286.74812195 314.74932861 287.61198425 C311.17238073 303.51907698 303.0090708 319.2004114 291.84185791 331.13371277 C291.18185791 331.13371277 290.52185791 331.13371277 289.84185791 331.13371277 C289.60080322 331.71636902 289.35974854 332.29902527 289.11138916 332.89933777 C281.88361968 345.62021205 262.19461908 352.92468641 248.84185791 357.13371277 C248.04737619 357.38829646 247.25289448 357.64288014 246.43433756 357.90517849 C239.64763916 359.92843686 233.50008507 360.56761239 226.44136047 360.53485107 C225.34759753 360.54164774 224.25383459 360.54844441 223.12692732 360.55544704 C219.49022011 360.57431953 215.85385257 360.57198857 212.21710205 360.56950378 C209.59771292 360.57848773 206.97832775 360.58869744 204.35894775 360.60003662 C197.99763341 360.62485977 191.63640249 360.63319686 185.27504373 360.63487376 C180.09669013 360.63630437 174.91836381 360.64249412 169.74001884 360.65197563 C155.02051275 360.67837348 140.30107202 360.69223784 125.58154208 360.68998421 C124.78951418 360.68986434 123.99748627 360.68974447 123.18145752 360.68962097 C122.38844887 360.68949833 121.59544022 360.68937569 120.77840101 360.68924933 C107.94674303 360.68803179 95.11534993 360.71669923 82.28376848 360.75903607 C69.07119993 360.80228158 55.85876008 360.82283802 42.64611906 360.82025474 C35.24328029 360.81926385 27.84071892 360.8272816 20.43794441 360.85978889 C14.13102893 360.88730875 7.82451644 360.89346492 1.51756645 360.87326062 C-1.69130633 360.86356437 -4.89926106 360.86628099 -8.10808754 360.88932037 C-37.83698463 361.0887767 -62.47800546 352.81096615 -84.34564209 332.38371277 C-103.86288507 311.83707934 -110.90722474 287.06755899 -110.27991104 259.19503784 C-109.91787164 250.0932078 -108.71469269 241.0590487 -107.60736084 232.02433777 C-107.33531939 229.72622975 -107.06441014 227.42798747 -106.79454041 225.12962341 C-106.22294072 220.28200601 -105.64348902 215.43542153 -105.05749512 210.58952332 C-104.15722047 203.14300486 -103.27676804 195.69422484 -102.39886475 188.24504089 C-100.91346076 175.66408741 -99.40549291 163.0859353 -97.88885498 150.50871277 C-97.11126582 144.05883931 -96.33989139 137.60823724 -95.56978321 131.15746689 C-94.96296851 126.0832546 -94.35190742 121.0095601 -93.73969078 115.93599701 C-93.45313176 113.55548217 -93.16807637 111.17478575 -92.88468361 108.79389191 C-88.6514973 73.26747677 -82.77182757 42.34997989 -53.09564209 18.69230652 C-37.49817282 7.39561002 -19.41015815 -0.03547684 0 0 Z M178.71636963 45.04850769 C176.72394883 45.05211124 174.73152727 45.05531441 172.73910522 45.05815125 C167.36737535 45.06745329 161.9956912 45.08377168 156.62398672 45.10252166 C153.26122966 45.1142174 149.89847069 45.12486632 146.53570938 45.13526344 C135.99367649 45.16842216 125.45167536 45.20639338 114.90968311 45.25062865 C102.77633102 45.30141322 90.6430784 45.33562799 78.50963771 45.35580939 C69.10110751 45.37251402 59.69270333 45.40441435 50.28425801 45.4476555 C44.67703112 45.47306971 39.06996071 45.49207475 33.46267319 45.49503136 C28.19124944 45.49819564 22.92023373 45.52029426 17.64893723 45.55658722 C15.72214589 45.56665109 13.7953056 45.57005185 11.86849213 45.56605721 C-5.35289632 45.53720968 -17.90801211 48.38482303 -30.90814209 60.44621277 C-41.40338767 71.58352043 -44.44444892 85.68975924 -45.72064209 100.50871277 C-45.95927316 102.9854935 -46.20018977 105.46205501 -46.44329834 107.93840027 C-46.56076416 109.15624207 -46.67822998 110.37408386 -46.79925537 111.62882996 C-47.31296335 116.64569508 -47.97408853 121.63768661 -48.65814209 126.63371277 C-49.81316969 135.16152877 -50.77175394 143.6989501 -51.65814209 152.25871277 C-52.50169187 160.39160904 -53.43622336 168.48634291 -54.65814209 176.57121277 C-56.10068088 186.12333648 -57.07406012 195.70438291 -58.03094482 205.31584167 C-58.794051 212.88102378 -59.66881456 220.4157663 -60.72064209 227.94621277 C-60.90687134 229.28993958 -60.90687134 229.28993958 -61.09686279 230.66081238 C-61.63847918 234.53450768 -62.19818379 238.40424861 -62.79095459 242.27043152 C-66.1212497 265.29909531 -66.1212497 265.29909531 -60.15814209 287.13371277 C-59.67216553 288.05023621 -59.18618896 288.96675964 -58.68548584 289.91105652 C-51.86233647 301.67010119 -42.32196027 308.86092056 -29.65814209 313.38371277 C-21.7048454 315.08799063 -13.69710365 315.27920129 -5.59007263 315.24964905 C-4.5738962 315.24994775 -3.55771977 315.25024645 -2.51075011 315.2505542 C0.86893428 315.2502005 4.24855998 315.24255123 7.62823486 315.23478699 C10.06178765 315.23282636 12.49534077 315.23124422 14.92889404 315.23001099 C22.20851709 315.22439917 29.48810498 315.209881 36.76770833 315.19308251 C39.51446722 315.18684667 42.26122713 315.18115031 45.00798715 315.1754336 C57.13411219 315.15004794 69.26022502 315.12121782 81.38631916 315.08375359 C84.34635215 315.0746547 87.30638522 315.06558425 90.26641846 315.05656433 C91.00201648 315.05431977 91.73761451 315.0520752 92.49550339 315.04976262 C104.41359898 315.01396131 116.33162946 314.9986724 128.24977324 314.99180685 C140.5119931 314.98439502 152.77406215 314.9581902 165.03620499 314.91385853 C171.91059771 314.88947599 178.78479514 314.87321625 185.659235 314.87812424 C192.12646699 314.88269 198.59330676 314.86176858 205.06043243 314.823946 C207.42703214 314.81414313 209.79368464 314.8127361 212.16029167 314.82057381 C228.10146654 314.86693013 241.38926459 314.28250893 253.84185791 303.13371277 C254.50701416 302.58328308 255.17217041 302.03285339 255.85748291 301.46574402 C263.52299141 294.60482134 269.6662465 283.47539543 270.84185791 273.13371277 C271.39281845 261.66325898 270.04083792 250.5046932 268.64654541 239.14543152 C268.41547084 237.21297958 268.18511526 235.28044155 267.95542908 233.3478241 C267.34461378 228.22570286 266.72374835 223.10484861 266.10069656 217.98420334 C265.45776548 212.68618307 264.82407975 207.38705681 264.18927002 202.08805847 C262.85468342 190.96256505 261.50698594 179.83868798 260.1553421 168.71525574 C259.70126976 164.97596905 259.24880423 161.23648859 258.79644775 157.49699402 C257.45846345 146.44432153 256.10684191 135.39355891 254.728302 124.34587097 C254.12983183 119.5282072 253.55604142 114.70840406 253.00486755 109.88510132 C252.66116711 106.88290383 252.30868842 103.8817683 251.95535278 100.88069153 C251.7307952 98.94156568 251.51940924 97.00092749 251.30889893 95.06022644 C249.47431036 79.58950715 244.33781474 65.13477976 231.84185791 55.13371277 C228.29346396 52.84927228 224.6549288 50.93605056 220.84185791 49.13371277 C220.1857251 48.80371277 219.52959229 48.47371277 218.85357666 48.13371277 C207.17319934 42.93131773 191.268216 45.00218128 178.71636963 45.04850769 Z " fill="#014A56" transform="translate(110.15814208984375,-0.1337127685546875)"/>
<path d="M0 0 C2.36071373 1.32215768 4.68896874 2.69073151 7.0144043 4.07397461 C23.8171283 14.05692659 40.98029403 21.46967807 60 26 C61.44439453 26.34998047 61.44439453 26.34998047 62.91796875 26.70703125 C100.87482921 35.09495431 141.69351966 23.6495784 173.87890625 3.16796875 C175.31370453 2.19646613 176.73790069 1.20867119 178.140625 0.19140625 C183.83649296 -3.45825704 189.40772778 -3.83949847 196 -3 C203.39754959 -0.72138516 208.19667463 3.29155157 212 10 C213.99496614 15.98489843 214.16424393 23.43343811 212.19921875 29.453125 C200.07269013 50.62246018 160.8832528 62.70733316 139 69 C138.2874707 69.20705566 137.57494141 69.41411133 136.84082031 69.62744141 C88.21328653 83.36396749 37.88639141 73.48493686 -6 50 C-30.19278281 36.42165157 -30.19278281 36.42165157 -34 25 C-34.88315927 16.03810513 -33.42330469 10.18403907 -27.75 3.25 C-18.92522091 -3.9702738 -10.31371558 -5.21600044 0 0 Z " fill="#024A56" transform="translate(123,195)"/>
<path d="M0 0 C0.99 0.66 1.98 1.32 3 2 C8.86690148 3.19741009 14.69887089 3.14307489 20.65855408 3.13371277 C21.72061414 3.13597833 22.7826742 3.13824388 23.8769179 3.14057809 C27.42959375 3.14689956 30.98223127 3.14608992 34.53491211 3.14526367 C37.08450876 3.14825627 39.63410496 3.15165904 42.18370056 3.15544128 C48.38645079 3.16335701 54.58918701 3.16649543 60.79194181 3.16705366 C65.83461401 3.16752943 70.87728309 3.16958721 75.9199543 3.17275429 C90.22583093 3.18155598 104.53170007 3.1861743 118.83757942 3.18542381 C119.60813866 3.18538386 120.3786979 3.1853439 121.17260742 3.18530273 C121.94411027 3.18526185 122.71561311 3.18522097 123.51049484 3.18517885 C136.01738691 3.18477229 148.5242489 3.19434578 161.03113227 3.2084411 C173.88189568 3.22280943 186.73264441 3.22971107 199.58341604 3.22884732 C206.79468245 3.22851556 214.00591728 3.23125363 221.21717644 3.24202538 C227.9977468 3.25208919 234.77823944 3.25179039 241.55881691 3.24450874 C244.04686455 3.24346209 246.53491632 3.24583053 249.02295685 3.2518692 C252.42020396 3.25958044 255.81722018 3.25494989 259.21446228 3.24723816 C260.19803127 3.25238172 261.18160025 3.25752529 262.19497436 3.26282471 C266.50692924 3.24120701 270.3251034 3.03779518 274.48659611 1.85954762 C276.22573103 1.43407155 276.22573103 1.43407155 278 1 C278.99 1.66 279.98 2.32 281 3 C274.9249061 5.12607601 269.39516185 5.2819288 262.99304199 5.25396729 C261.89352439 5.25708727 260.7940068 5.26020725 259.66117048 5.26342177 C255.9817412 5.27139063 252.30247735 5.26508234 248.62304688 5.25878906 C245.98315448 5.26149942 243.34327342 5.26498834 240.7033844 5.26940918 C234.28037611 5.27829375 227.85741461 5.27638535 221.43440449 5.2705839 C216.21342213 5.26606373 210.99245287 5.26545604 205.77146912 5.26763153 C205.02786643 5.267938 204.28426375 5.26824446 203.51812765 5.26856022 C202.0074255 5.26919968 200.49672336 5.26984811 198.98602122 5.2705054 C184.82633795 5.27620595 170.6666806 5.26965512 156.50700158 5.25890467 C144.36223938 5.2499694 132.21751542 5.25152152 120.07275391 5.26074219 C105.96309355 5.27144967 91.8534559 5.27565665 77.74379206 5.26951766 C76.238705 5.26888057 74.73361795 5.26825183 73.22853088 5.26763153 C72.48803512 5.26732298 71.74753936 5.26701443 70.98460433 5.26669653 C65.77101627 5.26497102 60.55744264 5.26788157 55.34385681 5.27259064 C48.988634 5.27820478 42.63346059 5.2766718 36.27824342 5.26602915 C33.03686871 5.26077961 29.79559313 5.25978342 26.55421638 5.26532745 C23.03838132 5.27078678 19.52277827 5.26394375 16.00695801 5.25396729 C14.47470746 5.26065945 14.47470746 5.26065945 12.91150236 5.26748681 C7.54503706 5.23792081 3.07509787 4.77611145 -2 3 C-1.34 2.67 -0.68 2.34 0 2 C0 1.34 0 0.68 0 0 Z " fill="#11515B" transform="translate(74,355)"/>
<path d="M0 0 C0.33 0 0.66 0 1 0 C1.36504603 1.58086048 1.71660506 3.16483907 2.0625 4.75 C2.25972656 5.63171875 2.45695312 6.5134375 2.66015625 7.421875 C2.99825872 9.98679028 2.81158635 11.57091639 2 14 C2 13.01 2 12.02 2 11 C-0.97 10.505 -0.97 10.505 -4 10 C-3.34 8.68 -2.68 7.36 -2 6 C-1.34 6 -0.68 6 0 6 C0 4.02 0 2.04 0 0 Z " fill="#0F515A" transform="translate(45,269)"/>
<path d="M0 0 C2.64752004 2.57784846 4.94432065 4.91648098 7 8 C7 8.99 7 9.98 7 11 C5 11 5 11 2.9375 9.4375 C0.47130385 6.33486614 0.29957983 3.89453784 0 0 Z " fill="#10474E" transform="translate(328,197)"/>
<path d="M0 0 C0.99 0.66 1.98 1.32 3 2 C4.88154883 2.44111565 6.78062638 2.8109267 8.6875 3.125 C9.68136719 3.29257812 10.67523438 3.46015625 11.69921875 3.6328125 C12.45847656 3.75398438 13.21773437 3.87515625 14 4 C14 4.33 14 4.66 14 5 C8.22192976 5.2358396 3.48675196 4.86783046 -2 3 C-1.34 2.67 -0.68 2.34 0 2 C0 1.34 0 0.68 0 0 Z " fill="#1C5862" transform="translate(74,355)"/>
<path d="M0 0 C0.99 0.33 1.98 0.66 3 1 C2.67 1.99 2.34 2.98 2 4 C2.66 4 3.32 4 4 4 C6.1519437 7.22791555 6.20086443 8.28400809 6 12 C0 4.8 0 4.8 0 0 Z " fill="#135158" transform="translate(9,305)"/>
<path d="M0 0 C0.79921875 0.00902344 1.5984375 0.01804687 2.421875 0.02734375 C3.02515625 0.03894531 3.6284375 0.05054688 4.25 0.0625 C1.10426323 2.15965785 -0.76456251 2.58254559 -4.4375 3.1875 C-5.92830078 3.43886719 -5.92830078 3.43886719 -7.44921875 3.6953125 C-8.20847656 3.81648438 -8.96773437 3.93765625 -9.75 4.0625 C-9.42 3.0725 -9.09 2.0825 -8.75 1.0625 C-5.8585914 -0.0569613 -3.07237388 -0.04518197 0 0 Z " fill="#135258" transform="translate(260.75,261.9375)"/>
<path d="M0 0 C0.99 0.33 1.98 0.66 3 1 C2.75 2.875 2.75 2.875 2 5 C-0.0625 6.25 -0.0625 6.25 -2 7 C-2.6875 5.1875 -2.6875 5.1875 -3 3 C-1.5625 1.25 -1.5625 1.25 0 0 Z " fill="#0B434D" transform="translate(397,329)"/>
<path d="M0 0 C0.66 0.33 1.32 0.66 2 1 C-2.75 4 -2.75 4 -5 4 C-5 4.66 -5 5.32 -5 6 C-6.98 6.99 -8.96 7.98 -11 9 C-11 8.01 -11 7.02 -11 6 C-9.21385682 4.96953278 -7.42089982 3.95086764 -5.625 2.9375 C-4.62726563 2.36902344 -3.62953125 1.80054688 -2.6015625 1.21484375 C-1.74304688 0.81394531 -0.88453125 0.41304687 0 0 Z " fill="#19555B" transform="translate(306,193)"/>
<path d="M0 0 C0.33 0.66 0.66 1.32 1 2 C1.66 2.33 2.32 2.66 3 3 C2.67 3.99 2.34 4.98 2 6 C-1.37503669 4.8141763 -3.64722731 3.72426311 -6 1 C-4.7934375 1.0309375 -4.7934375 1.0309375 -3.5625 1.0625 C-1.06645115 1.29633621 -1.06645115 1.29633621 0 0 Z " fill="#105159" transform="translate(340,49)"/>
<path d="M0 0 C2.1640625 -0.29296875 2.1640625 -0.29296875 4.625 -0.1875 C5.44226563 -0.16042969 6.25953125 -0.13335937 7.1015625 -0.10546875 C8.04128906 -0.05326172 8.04128906 -0.05326172 9 0 C6.29811996 1.80125336 4.06942297 3.00243753 1 4 C0.01 3.67 -0.98 3.34 -2 3 C-1.34 2.01 -0.68 1.02 0 0 Z " fill="#0E5659" transform="translate(268,258)"/>
<path d="M0 0 C0.33 0 0.66 0 1 0 C1.12375 1.134375 1.2475 2.26875 1.375 3.4375 C1.58125 4.613125 1.7875 5.78875 2 7 C2.66 7.33 3.32 7.66 4 8 C3.34 10.64 2.68 13.28 2 16 C1.67 16 1.34 16 1 16 C0.67 10.72 0.34 5.44 0 0 Z " fill="#1A535E" transform="translate(369,158)"/>
<path d="M0 0 C-0.33 1.32 -0.66 2.64 -1 4 C-2.98 4 -4.96 4 -7 4 C-7 3.01 -7 2.02 -7 1 C-4.50935112 0.31292445 -2.62113708 0 0 0 Z " fill="#0A404A" transform="translate(104,0)"/>
<path d="M0 0 C1.46067199 0.45082469 2.91848032 0.91093537 4.375 1.375 C5.18710938 1.63023437 5.99921875 1.88546875 6.8359375 2.1484375 C9 3 9 3 11 5 C8.69 4.67 6.38 4.34 4 4 C4 3.34 4 2.68 4 2 C3.01 2.33 2.02 2.66 1 3 C0.67 2.01 0.34 1.02 0 0 Z " fill="#15575B" transform="translate(148,210)"/>
<path d="M0 0 C3.45925163 1.2491742 6.14693203 2.67527795 9 5 C7.02 5 5.04 5 3 5 C3 4.01 3 3.02 3 2 C1.68 1.67 0.36 1.34 -1 1 C-0.67 0.67 -0.34 0.34 0 0 Z " fill="#13535A" transform="translate(135,203)"/>
<path d="M0 0 C0.66 0 1.32 0 2 0 C1.01 2.97 0.02 5.94 -1 9 C-1.66 7.68 -2.32 6.36 -3 5 C-2.34 4.67 -1.68 4.34 -1 4 C-0.34786708 1.97536745 -0.34786708 1.97536745 0 0 Z " fill="#134F59" transform="translate(70,70)"/>
<path d="M0 0 C4.75 1.875 4.75 1.875 7 3 C6.67 3.66 6.34 4.32 6 5 C5.34 5 4.68 5 4 5 C4 4.34 4 3.68 4 3 C2.68 3.33 1.36 3.66 0 4 C0 2.68 0 1.36 0 0 Z " fill="#12545B" transform="translate(120,194)"/>
<path d="M0 0 C1.258125 -0.04125 2.51625 -0.0825 3.8125 -0.125 C4.52019531 -0.14820313 5.22789063 -0.17140625 5.95703125 -0.1953125 C8 0 8 0 11 2 C10.01 2 9.02 2 8 2 C7.67 2.66 7.34 3.32 7 4 C6.34 3.34 5.68 2.68 5 2 C2.42938689 1.35232207 2.42938689 1.35232207 0 1 C0 0.67 0 0.34 0 0 Z " fill="#13545B" transform="translate(108,192)"/>
<path d="M0 0 C0.66 0.66 1.32 1.32 2 2 C1.34 4.31 0.68 6.62 0 9 C-0.33 9 -0.66 9 -1 9 C-1.09765625 2.84765625 -1.09765625 2.84765625 -1 1 C-0.67 0.67 -0.34 0.34 0 0 Z " fill="#0F474B" transform="translate(60,130)"/>
</svg>
