<svg version="1.1" id="Layer_1" xmlns="http://www.w3.org/2000/svg" xmlns:xlink="http://www.w3.org/1999/xlink" x="0px" y="0px"
	 width="100%" viewBox="0 0 512 512" enable-background="new 0 0 512 512" xml:space="preserve">
<path fill="#000000" opacity="1.000000" stroke="none" 
	d="
M268.000000,513.000000 
	C178.688339,513.000000 89.876678,513.000000 1.032508,513.000000 
	C1.032508,342.396637 1.032508,171.793289 1.032508,1.094962 
	C171.561676,1.094962 342.123444,1.094962 512.842590,1.094962 
	C512.842590,171.666550 512.842590,342.333252 512.842590,513.000000 
	C431.459930,513.000000 349.979950,513.000000 268.000000,513.000000 
M360.553009,77.289711 
	C358.901398,77.193329 357.249786,77.013420 355.598145,77.012802 
	C314.685913,76.997536 273.773682,76.989120 232.861450,77.005844 
	C205.921875,77.016861 178.982315,77.068962 151.377197,77.295006 
	C146.378647,77.958626 141.238251,78.090141 136.406219,79.378372 
	C115.954025,84.830994 98.428116,94.771362 85.222122,111.989212 
	C73.166542,127.707161 66.717667,145.239944 64.927284,164.777527 
	C64.054245,174.304428 62.824291,183.799728 61.684559,193.300766 
	C60.488682,203.269882 59.181782,213.225662 57.970856,223.193024 
	C56.818134,232.681305 55.758606,242.180908 54.600342,251.668488 
	C53.081425,264.110260 51.449772,276.538483 49.970451,288.984833 
	C48.490654,301.435211 47.696014,313.996460 45.577900,326.333405 
	C43.353359,339.290222 43.374466,352.093811 46.380325,364.721619 
	C51.060848,384.384766 60.075867,401.520294 76.058144,414.816467 
	C87.778885,424.567383 100.686935,431.420013 115.390129,434.873230 
	C119.728363,435.892090 124.357857,435.670746 129.354401,436.746277 
	C130.338287,436.851959 131.322174,437.050232 132.306046,437.050110 
	C205.550308,437.042236 278.794556,437.021515 352.038818,436.993378 
	C362.689819,436.989288 373.340790,436.943970 384.706726,436.950317 
	C388.686371,436.408234 392.713898,436.097565 396.637817,435.286041 
	C420.000946,430.454163 438.783722,418.354492 453.003021,399.230560 
	C463.818756,384.684265 470.207397,368.169708 470.717285,350.211334 
	C471.100281,336.722565 469.145081,323.128021 467.706390,309.636536 
	C465.759918,291.383514 463.281830,273.187561 461.088348,254.960327 
	C459.585754,242.474197 458.229431,229.970444 456.716003,217.485672 
	C455.203766,205.010834 453.821045,192.512863 451.934937,180.092850 
	C449.903992,166.719315 448.416168,153.126129 444.774292,140.167557 
	C439.712769,122.157745 427.840302,108.339058 413.471802,96.584320 
	C402.461395,87.576805 389.528778,82.729057 376.092621,79.162849 
	C371.319244,77.895905 366.096069,78.323685 360.553009,77.289711 
z"/>
<path fill="#014A56" opacity="1.000000" stroke="none" 
	d="
M128.853867,436.017761 
	C124.357857,435.670746 119.728363,435.892090 115.390129,434.873230 
	C100.686935,431.420013 87.778885,424.567383 76.058144,414.816467 
	C60.075867,401.520294 51.060848,384.384766 46.380325,364.721619 
	C43.374466,352.093811 43.353359,339.290222 45.577900,326.333405 
	C47.696014,313.996460 48.490654,301.435211 49.970451,288.984833 
	C51.449772,276.538483 53.081425,264.110260 54.600342,251.668488 
	C55.758606,242.180908 56.818134,232.681305 57.970856,223.193024 
	C59.181782,213.225662 60.488682,203.269882 61.684559,193.300766 
	C62.824291,183.799728 64.054245,174.304428 64.927284,164.777527 
	C66.717667,145.239944 73.166542,127.707161 85.222122,111.989212 
	C98.428116,94.771362 115.954025,84.830994 136.406219,79.378372 
	C141.238251,78.090141 146.378647,77.958626 152.031525,77.457687 
	C153.834473,77.750870 154.983063,77.995445 156.131699,77.995560 
	C224.447220,78.002441 292.762726,77.989174 361.078247,77.977821 
	C366.096069,78.323685 371.319244,77.895905 376.092621,79.162849 
	C389.528778,82.729057 402.461395,87.576805 413.471802,96.584320 
	C427.840302,108.339058 439.712769,122.157745 444.774292,140.167557 
	C448.416168,153.126129 449.903992,166.719315 451.934937,180.092850 
	C453.821045,192.512863 455.203766,205.010834 456.716003,217.485672 
	C458.229431,229.970444 459.585754,242.474197 461.088348,254.960327 
	C463.281830,273.187561 465.759918,291.383514 467.706390,309.636536 
	C469.145081,323.128021 471.100281,336.722565 470.717285,350.211334 
	C470.207397,368.169708 463.818756,384.684265 453.003021,399.230560 
	C438.783722,418.354492 420.000946,430.454163 396.637817,435.286041 
	C392.713898,436.097565 388.686371,436.408234 384.035583,436.658813 
	C381.884705,436.241089 380.405029,436.005951 378.925232,436.005005 
	C353.468445,435.988525 328.011688,436.003937 302.554901,436.006378 
	C244.654556,436.011932 186.754211,436.014160 128.853867,436.017761 
M381.717896,391.882843 
	C392.588257,390.400879 402.022308,385.353943 409.876831,378.237762 
	C423.179352,366.185730 426.870941,350.472137 424.538757,333.015564 
	C423.205933,323.039551 422.137177,313.028076 420.968384,303.030365 
	C419.856873,293.522614 418.809814,284.007233 417.661072,274.504059 
	C416.473663,264.681091 415.188171,254.870026 413.963593,245.051514 
	C412.738861,235.232071 411.500488,225.414124 410.334259,215.587677 
	C409.168823,205.767853 408.173584,195.927200 406.939636,186.116333 
	C405.829620,177.291443 405.594604,168.161972 403.045929,159.750961 
	C396.753571,138.985260 382.528473,126.420120 360.243744,122.276085 
	C358.255951,122.166626 356.268097,121.960678 354.280365,121.961662 
	C287.218750,121.994896 220.157135,122.047821 152.385040,122.300896 
	C150.686157,122.914459 149.015274,123.624619 147.284088,124.126793 
	C127.901894,129.749008 115.559601,142.335419 111.417702,162.037109 
	C109.353035,171.858124 109.056870,182.046249 107.869049,192.057434 
	C106.294952,205.324234 104.636230,218.581024 103.004143,231.840912 
	C101.834549,241.343262 100.643486,250.842972 99.471939,260.345093 
	C97.976929,272.470764 96.480415,284.596252 95.006142,296.724457 
	C93.752342,307.038910 92.433922,317.346832 91.319862,327.676605 
	C90.257034,337.531219 88.926765,347.276794 91.861717,357.232727 
	C96.619469,373.371826 113.753525,390.951874 132.758026,391.707458 
	C135.580948,391.822357 138.403854,392.036774 141.226807,392.037537 
	C208.808578,392.056305 276.390350,392.059143 343.972107,392.045837 
	C356.288940,392.043396 368.605743,391.958191 381.717896,391.882843 
z"/>
<path fill="#286D75" opacity="1.000000" stroke="none" 
	d="
M129.104126,436.382019 
	C186.754211,436.014160 244.654556,436.011932 302.554901,436.006378 
	C328.011688,436.003937 353.468445,435.988525 378.925232,436.005005 
	C380.405029,436.005951 381.884705,436.241089 383.678101,436.642517 
	C373.340790,436.943970 362.689819,436.989288 352.038818,436.993378 
	C278.794556,437.021515 205.550308,437.042236 132.306046,437.050110 
	C131.322174,437.050232 130.338287,436.851959 129.104126,436.382019 
z"/>
<path fill="#276C74" opacity="1.000000" stroke="none" 
	d="
M360.815613,77.633766 
	C292.762726,77.989174 224.447220,78.002441 156.131699,77.995560 
	C154.983063,77.995445 153.834473,77.750870 152.364288,77.361511 
	C178.982315,77.068962 205.921875,77.016861 232.861450,77.005844 
	C273.773682,76.989120 314.685913,76.997536 355.598145,77.012802 
	C357.249786,77.013420 358.901398,77.193329 360.815613,77.633766 
z"/>
<path fill="#000000" opacity="1.000000" stroke="none" 
	d="
M360.823669,122.850060 
	C382.528473,126.420120 396.753571,138.985260 403.045929,159.750961 
	C405.594604,168.161972 405.829620,177.291443 406.939636,186.116333 
	C408.173584,195.927200 409.168823,205.767853 410.334259,215.587677 
	C411.500488,225.414124 412.738861,235.232071 413.963593,245.051514 
	C415.188171,254.870026 416.473663,264.681091 417.661072,274.504059 
	C418.809814,284.007233 419.856873,293.522614 420.968384,303.030365 
	C422.137177,313.028076 423.205933,323.039551 424.538757,333.015564 
	C426.870941,350.472137 423.179352,366.185730 409.876831,378.237762 
	C402.022308,385.353943 392.588257,390.400879 381.103516,391.530731 
	C378.327515,391.118713 376.165955,391.006836 374.004364,391.006500 
	C315.543762,390.996979 257.083130,390.985779 198.622528,391.005615 
	C176.471741,391.013123 154.320984,391.096588 132.170212,391.145477 
	C113.753525,390.951874 96.619469,373.371826 91.861717,357.232727 
	C88.926765,347.276794 90.257034,337.531219 91.319862,327.676605 
	C92.433922,317.346832 93.752342,307.038910 95.006142,296.724457 
	C96.480415,284.596252 97.976929,272.470764 99.471939,260.345093 
	C100.643486,250.842972 101.834549,241.343262 103.004143,231.840912 
	C104.636230,218.581024 106.294952,205.324234 107.869049,192.057434 
	C109.056870,182.046249 109.353035,171.858124 111.417702,162.037109 
	C115.559601,142.335419 127.901894,129.749008 147.284088,124.126793 
	C149.015274,123.624619 150.686157,122.914459 152.962662,122.558060 
	C156.035156,122.877304 158.529999,122.992996 161.024887,122.993538 
	C210.309662,123.004181 259.594421,123.014328 308.879211,122.994537 
	C326.194031,122.987587 343.508850,122.900528 360.823669,122.850060 
M333.488251,279.994324 
	C325.876892,283.697235 318.453705,287.869568 310.617310,291.011322 
	C290.530762,299.064453 269.647614,303.880951 247.924500,301.752777 
	C236.403656,300.624084 224.942200,297.993469 213.705185,295.073853 
	C196.927063,290.714478 181.844070,282.432648 167.488937,272.859283 
	C159.413376,267.473785 146.619080,268.132690 141.139572,273.648895 
	C129.749710,285.115082 129.120941,302.088104 143.470337,311.106140 
	C155.613342,318.737549 168.376541,325.552002 181.396652,331.580292 
	C204.140335,342.110565 228.388306,347.471100 253.387253,347.786499 
	C266.111755,347.947021 278.991913,346.286407 291.585663,344.165985 
	C320.129181,339.360077 345.597321,326.695862 369.933533,311.568268 
	C377.028748,307.157806 380.847137,300.512726 380.916016,292.201080 
	C380.987762,283.536224 376.532074,277.094269 369.305695,272.670715 
	C360.890961,267.519745 352.417358,268.578339 344.170654,273.230286 
	C340.713562,275.180389 337.414459,277.410553 333.488251,279.994324 
z"/>
<path fill="#93D0C7" opacity="1.000000" stroke="none" 
	d="
M132.464111,391.426453 
	C154.320984,391.096588 176.471741,391.013123 198.622528,391.005615 
	C257.083130,390.985779 315.543762,390.996979 374.004364,391.006500 
	C376.165955,391.006836 378.327515,391.118713 380.705841,391.544922 
	C368.605743,391.958191 356.288940,392.043396 343.972107,392.045837 
	C276.390350,392.059143 208.808578,392.056305 141.226807,392.037537 
	C138.403854,392.036774 135.580948,391.822357 132.464111,391.426453 
z"/>
<path fill="#93CFC7" opacity="1.000000" stroke="none" 
	d="
M360.533691,122.563072 
	C343.508850,122.900528 326.194031,122.987587 308.879211,122.994537 
	C259.594421,123.014328 210.309662,123.004181 161.024887,122.993538 
	C158.529999,122.992996 156.035156,122.877304 153.317902,122.456558 
	C220.157135,122.047821 287.218750,121.994896 354.280365,121.961662 
	C356.268097,121.960678 358.255951,122.166626 360.533691,122.563072 
z"/>
<path fill="#014A57" opacity="1.000000" stroke="none" 
	d="
M333.765869,279.753845 
	C337.414459,277.410553 340.713562,275.180389 344.170654,273.230286 
	C352.417358,268.578339 360.890961,267.519745 369.305695,272.670715 
	C376.532074,277.094269 380.987762,283.536224 380.916016,292.201080 
	C380.847137,300.512726 377.028748,307.157806 369.933533,311.568268 
	C345.597321,326.695862 320.129181,339.360077 291.585663,344.165985 
	C278.991913,346.286407 266.111755,347.947021 253.387253,347.786499 
	C228.388306,347.471100 204.140335,342.110565 181.396652,331.580292 
	C168.376541,325.552002 155.613342,318.737549 143.470337,311.106140 
	C129.120941,302.088104 129.749710,285.115082 141.139572,273.648895 
	C146.619080,268.132690 159.413376,267.473785 167.488937,272.859283 
	C181.844070,282.432648 196.927063,290.714478 213.705185,295.073853 
	C224.942200,297.993469 236.403656,300.624084 247.924500,301.752777 
	C269.647614,303.880951 290.530762,299.064453 310.617310,291.011322 
	C318.453705,287.869568 325.876892,283.697235 333.765869,279.753845 
z"/>
</svg>