<svg version="1.1" id="Layer_1" xmlns="http://www.w3.org/2000/svg" xmlns:xlink="http://www.w3.org/1999/xlink" x="0px" y="0px"
	 width="100%" viewBox="0 0 820 480" enable-background="new 0 0 820 480" xml:space="preserve">
<path fill="#000000" opacity="1.000000" stroke="none" 
	d="
M163.000000,1.000000 
	C382.221008,1.000000 601.442017,1.000000 821.000000,1.000000 
	C821.000000,60.023651 821.000000,119.047943 820.735413,178.875580 
	C816.225342,169.732590 808.795410,163.170273 798.295410,161.137177 
	C783.877808,158.345520 769.638245,159.909256 755.644165,164.557388 
	C752.011292,165.764053 750.898804,167.250671 750.915894,170.989655 
	C751.062561,202.974518 751.000000,234.960327 751.000000,266.945862 
	C751.000000,268.610291 751.000000,270.274719 751.000000,272.014069 
	C744.602295,267.692596 739.325562,263.065491 733.222900,260.193390 
	C709.090149,248.835739 684.127319,246.814194 658.460083,254.824783 
	C641.600891,260.086456 626.943237,268.843781 615.456360,282.234894 
	C608.788696,290.007874 602.364563,298.196838 597.193420,306.999115 
	C588.931885,321.062134 585.384521,336.665924 583.770935,352.984192 
	C582.307800,367.780884 583.506653,382.127716 586.800293,396.420929 
	C592.392395,420.688477 605.048828,440.522430 624.533020,456.086761 
	C640.170166,468.578033 657.969482,475.866974 677.600525,479.070587 
	C678.481873,479.214417 679.203857,480.334564 680.000000,481.000000 
	C453.763641,481.000000 227.527298,481.000000 1.000000,481.000000 
	C1.000000,374.642761 1.000000,268.285278 1.381667,161.473541 
	C2.181308,161.595520 2.742217,162.115128 2.996006,162.756317 
	C7.446158,173.999451 15.182766,182.259216 27.283758,183.731003 
	C37.964817,185.030106 49.073986,185.079010 59.742302,183.713089 
	C78.556160,181.304260 96.408859,175.286652 112.736237,165.214813 
	C114.157913,164.337845 117.336571,164.213776 118.387321,165.174591 
	C124.694923,170.942230 130.675674,177.075211 136.584656,183.259018 
	C137.186783,183.889160 137.035400,185.938843 136.474457,186.874725 
	C129.416824,198.649704 123.607086,211.011642 120.398170,224.353241 
	C116.570015,240.269424 112.985695,256.358826 116.080635,272.878906 
	C117.507103,280.493042 120.910973,287.035553 127.295067,292.180023 
	C135.549774,298.831818 144.793137,300.852783 154.903259,299.957886 
	C170.956055,298.536957 184.212418,285.705566 184.795929,269.614349 
	C185.193970,258.637512 184.285797,247.509949 182.858826,236.593948 
	C180.600174,219.315720 173.763412,203.482849 165.718246,188.133286 
	C164.870667,186.516159 164.560211,183.286789 165.533081,182.265945 
	C171.121353,176.402115 177.090607,170.887207 183.154572,165.506287 
	C184.052628,164.709381 186.497498,164.623276 187.622299,165.266052 
	C212.440704,179.448349 238.993912,186.940140 267.669312,185.917465 
	C276.181519,185.613907 284.031128,182.559418 290.054108,176.337006 
	C297.599518,168.541794 300.418365,159.142868 300.207733,148.109894 
	C299.941925,134.185791 288.137512,119.335999 274.890228,117.028885 
	C259.407684,114.332474 244.076553,116.201843 228.954193,119.596657 
	C214.962982,122.737534 201.580414,127.720512 189.324814,135.323883 
	C186.629257,136.996201 184.169998,137.538040 181.825623,135.248550 
	C175.577316,129.146530 169.450027,122.920578 164.002304,117.471718 
	C168.739700,107.192947 173.372955,98.396317 176.917618,89.180946 
	C183.744659,71.432014 186.736160,52.927128 186.005402,33.868114 
	C185.518372,21.166479 178.341583,8.353228 165.582291,3.822049 
	C164.521271,3.445251 163.851532,1.966673 163.000000,1.000000 
M404.500000,415.000000 
	C389.503723,415.000000 374.507446,415.000000 358.774261,415.000000 
	C367.144165,407.963348 374.751129,401.746552 382.158051,395.299927 
	C393.705933,385.249176 405.285858,375.224762 416.548126,364.858795 
	C433.153046,349.575409 449.701019,334.217499 465.864075,318.471375 
	C475.699890,308.889252 479.941589,296.594666 477.731232,283.054993 
	C476.758087,277.093964 473.887970,270.860992 470.186432,266.055267 
	C463.674835,257.601257 453.599976,255.253510 443.450470,255.104172 
	C420.797180,254.770874 398.135651,255.000000 375.477478,255.000000 
	C343.156250,255.000000 310.835022,255.004730 278.513794,254.990768 
	C276.026184,254.989700 273.682648,254.667267 272.520111,257.881866 
	C268.144409,269.981415 263.524780,281.811859 265.820648,295.310150 
	C267.606018,305.807434 272.174469,313.266968 282.624390,316.128235 
	C287.761383,317.534821 293.128540,318.814117 298.405914,318.873444 
	C323.559967,319.156067 348.718964,318.995697 373.876190,319.010437 
	C375.423431,319.011353 376.970642,319.162323 379.208160,319.279694 
	C372.109924,325.668915 365.693573,331.560211 359.151459,337.308411 
	C346.180359,348.705414 333.117218,359.997589 320.137726,371.385071 
	C313.696106,377.036591 307.439026,382.900024 300.950867,388.496490 
	C289.888794,398.038208 278.638733,407.363495 267.665558,417.005005 
	C266.188690,418.302734 265.140289,420.898254 265.114197,422.908630 
	C264.908722,438.733368 264.994812,454.561951 265.012421,470.389374 
	C265.013641,471.497589 265.185181,472.605591 265.277496,473.713593 
	C336.334320,473.713593 407.062683,473.713593 478.395172,473.713593 
	C478.395172,454.060150 478.395172,434.689575 478.395172,415.000000 
	C454.094574,415.000000 429.797302,415.000000 404.500000,415.000000 
M496.000000,283.678284 
	C496.000000,347.003754 496.000000,410.329254 496.000000,474.328156 
	C518.574280,474.328156 541.570740,474.328156 565.000000,474.328156 
	C565.000000,472.731506 565.000000,470.936035 565.000000,469.140533 
	C565.000000,428.833344 564.911316,388.525848 565.045776,348.219116 
	C565.096130,333.130219 565.773499,318.044434 565.965881,302.954681 
	C566.127197,290.298309 566.063782,277.637329 565.897095,264.981079 
	C565.880737,263.740051 564.704102,261.783478 563.623718,261.397675 
	C549.037354,256.188782 533.960999,253.823471 518.727966,257.160431 
	C504.830719,260.204803 496.508972,269.011414 496.000000,283.678284 
M527.703003,159.000000 
	C508.431213,159.330856 490.399811,179.067505 492.092804,198.444687 
	C493.009644,208.938171 496.647217,218.143814 504.224060,226.246902 
	C517.400024,240.338043 544.295532,240.228439 558.276978,225.597046 
	C571.992126,211.244339 573.430786,184.135315 557.769165,169.293121 
	C549.612549,161.563248 539.870850,158.131256 527.703003,159.000000 
z"/>
<path fill="#7462F4" opacity="1.000000" stroke="none" 
	d="
M680.468628,481.000000 
	C679.203857,480.334564 678.481873,479.214417 677.600525,479.070587 
	C657.969482,475.866974 640.170166,468.578033 624.533020,456.086761 
	C605.048828,440.522430 592.392395,420.688477 586.800293,396.420929 
	C583.506653,382.127716 582.307800,367.780884 583.770935,352.984192 
	C585.384521,336.665924 588.931885,321.062134 597.193420,306.999115 
	C602.364563,298.196838 608.788696,290.007874 615.456360,282.234894 
	C626.943237,268.843781 641.600891,260.086456 658.460083,254.824783 
	C684.127319,246.814194 709.090149,248.835739 733.222900,260.193390 
	C739.325562,263.065491 744.602295,267.692596 751.000000,272.014069 
	C751.000000,270.274719 751.000000,268.610291 751.000000,266.945862 
	C751.000000,234.960327 751.062561,202.974518 750.915894,170.989655 
	C750.898804,167.250671 752.011292,165.764053 755.644165,164.557388 
	C769.638245,159.909256 783.877808,158.345520 798.295410,161.137177 
	C808.795410,163.170273 816.225342,169.732590 820.735413,179.339478 
	C821.000000,245.687561 821.000000,312.375122 820.579529,379.550232 
	C819.784363,380.480560 819.176880,380.873413 819.069702,381.373505 
	C817.337891,389.453339 816.210144,397.705963 813.883362,405.606659 
	C807.464478,427.402466 795.231567,445.540680 777.092407,459.234131 
	C763.028503,469.851135 746.935120,476.216583 729.488098,479.067261 
	C728.577759,479.216034 727.825745,480.333527 727.000000,481.000000 
	C711.645752,481.000000 696.291565,481.000000 680.468628,481.000000 
M699.031311,416.531891 
	C702.924622,416.355072 706.834778,416.349731 710.708374,415.971191 
	C726.048706,414.472137 737.326599,406.497498 744.824524,393.366882 
	C752.839661,379.330475 752.939819,363.944397 749.630249,348.812805 
	C747.592957,339.498718 742.601868,331.266235 734.741150,324.832733 
	C721.896179,314.319946 707.403503,311.996094 691.822754,315.103577 
	C675.956909,318.267975 665.099365,327.935272 658.972229,342.887817 
	C654.286072,354.323944 653.926941,366.169800 656.033875,378.145416 
	C659.876221,399.984619 677.003845,415.354858 699.031311,416.531891 
z"/>
<path fill="#7462F4" opacity="1.000000" stroke="none" 
	d="
M162.531372,1.000000 
	C163.851532,1.966673 164.521271,3.445251 165.582291,3.822049 
	C178.341583,8.353228 185.518372,21.166479 186.005402,33.868114 
	C186.736160,52.927128 183.744659,71.432014 176.917618,89.180946 
	C173.372955,98.396317 168.739700,107.192947 164.002304,117.471718 
	C169.450027,122.920578 175.577316,129.146530 181.825623,135.248550 
	C184.169998,137.538040 186.629257,136.996201 189.324814,135.323883 
	C201.580414,127.720512 214.962982,122.737534 228.954193,119.596657 
	C244.076553,116.201843 259.407684,114.332474 274.890228,117.028885 
	C288.137512,119.335999 299.941925,134.185791 300.207733,148.109894 
	C300.418365,159.142868 297.599518,168.541794 290.054108,176.337006 
	C284.031128,182.559418 276.181519,185.613907 267.669312,185.917465 
	C238.993912,186.940140 212.440704,179.448349 187.622299,165.266052 
	C186.497498,164.623276 184.052628,164.709381 183.154572,165.506287 
	C177.090607,170.887207 171.121353,176.402115 165.533081,182.265945 
	C164.560211,183.286789 164.870667,186.516159 165.718246,188.133286 
	C173.763412,203.482849 180.600174,219.315720 182.858826,236.593948 
	C184.285797,247.509949 185.193970,258.637512 184.795929,269.614349 
	C184.212418,285.705566 170.956055,298.536957 154.903259,299.957886 
	C144.793137,300.852783 135.549774,298.831818 127.295067,292.180023 
	C120.910973,287.035553 117.507103,280.493042 116.080635,272.878906 
	C112.985695,256.358826 116.570015,240.269424 120.398170,224.353241 
	C123.607086,211.011642 129.416824,198.649704 136.474457,186.874725 
	C137.035400,185.938843 137.186783,183.889160 136.584656,183.259018 
	C130.675674,177.075211 124.694923,170.942230 118.387321,165.174591 
	C117.336571,164.213776 114.157913,164.337845 112.736237,165.214813 
	C96.408859,175.286652 78.556160,181.304260 59.742302,183.713089 
	C49.073986,185.079010 37.964817,185.030106 27.283758,183.731003 
	C15.182766,182.259216 7.446158,173.999451 2.996006,162.756317 
	C2.742217,162.115128 2.181308,161.595520 1.381667,161.009674 
	C1.000000,153.979050 1.000000,146.958099 1.381623,139.458923 
	C2.166151,138.570221 2.752965,138.231461 2.945029,137.738800 
	C7.602912,125.790924 15.645735,117.526947 28.771355,116.118164 
	C36.531197,115.285301 44.570683,115.141014 52.278656,116.193703 
	C63.666183,117.748909 75.119164,119.839867 86.075012,123.222527 
	C94.976921,125.971031 103.133247,131.081100 111.747627,134.852875 
	C113.811646,135.756592 117.306686,136.630753 118.566261,135.596878 
	C125.663322,129.771469 132.279007,123.359596 139.058823,117.147690 
	C137.360718,115.011322 136.596909,114.151466 136.048218,113.171188 
	C122.817818,89.533699 115.543274,64.321419 116.000206,37.075497 
	C116.253548,21.969086 121.731140,10.110047 136.437088,3.849238 
	C137.502609,3.395613 138.155350,1.972408 139.000000,0.999999 
	C146.687576,1.000000 154.375168,1.000000 162.531372,1.000000 
M76.600082,158.086517 
	C83.019379,155.714569 89.438675,153.342636 97.226387,150.465057 
	C92.871536,148.564117 89.941170,147.263519 86.994049,146.002090 
	C70.867760,139.099747 53.914288,136.050003 36.492577,136.122604 
	C26.942427,136.162384 22.089861,140.960129 22.022182,150.112411 
	C21.956697,158.967712 27.339075,163.797394 36.709606,164.041290 
	C50.108746,164.390045 63.074081,161.941589 76.600082,158.086517 
M153.120941,91.428940 
	C153.707291,90.105453 154.308945,88.788513 154.877670,87.457497 
	C162.028900,70.721291 165.237595,53.211472 164.971848,35.058918 
	C164.871933,28.234022 160.055847,22.687838 154.002930,22.004528 
	C144.808838,20.966610 139.488998,23.942242 138.095078,32.332691 
	C137.153275,38.001778 137.837402,43.967258 138.025238,49.792713 
	C138.540207,65.764359 143.429596,80.536171 150.455826,95.115257 
	C151.488724,93.900185 152.228790,93.029594 153.120941,91.428940 
M267.793762,164.688126 
	C278.882263,162.459641 279.682007,154.654724 278.922943,147.565414 
	C278.215393,140.957474 272.394562,136.882690 264.093536,137.043152 
	C258.827576,137.144958 253.562317,137.576935 248.309616,138.015274 
	C233.436157,139.256516 219.408066,143.370255 205.668533,150.728317 
	C225.189667,161.074402 245.635605,164.863129 267.793762,164.688126 
M140.920166,230.315369 
	C137.551285,242.638931 135.797058,255.080627 136.899506,267.939178 
	C137.642487,276.605286 144.857635,279.517456 152.306488,279.012726 
	C158.907379,278.565491 164.047150,273.247620 163.948502,266.349426 
	C163.858963,260.088165 163.331940,253.833298 163.004440,247.575256 
	C162.313766,234.376907 157.940231,222.156067 152.962418,210.113266 
	C152.474579,208.933029 151.257767,208.054108 150.379318,207.035309 
	C149.595825,207.967560 148.487274,208.777283 148.082123,209.852158 
	C145.628723,216.361191 143.335938,222.930771 140.920166,230.315369 
M149.767731,135.059387 
	C144.784103,140.393677 139.800476,145.727966 134.980347,150.887222 
	C138.959167,155.051041 143.419846,159.937317 148.187866,164.502594 
	C149.021301,165.300598 151.768433,165.436127 152.575104,164.707611 
	C157.561920,160.204056 162.246399,155.365662 167.341049,150.332520 
	C161.455780,144.980286 155.977905,139.998550 149.767731,135.059387 
z"/>
<path fill="#000000" opacity="1.000000" stroke="none" 
	d="
M138.531342,0.999999 
	C138.155350,1.972408 137.502609,3.395613 136.437088,3.849238 
	C121.731140,10.110047 116.253548,21.969086 116.000206,37.075497 
	C115.543274,64.321419 122.817818,89.533699 136.048218,113.171188 
	C136.596909,114.151466 137.360718,115.011322 139.058823,117.147690 
	C132.279007,123.359596 125.663322,129.771469 118.566261,135.596878 
	C117.306686,136.630753 113.811646,135.756592 111.747627,134.852875 
	C103.133247,131.081100 94.976921,125.971031 86.075012,123.222527 
	C75.119164,119.839867 63.666183,117.748909 52.278656,116.193703 
	C44.570683,115.141014 36.531197,115.285301 28.771355,116.118164 
	C15.645735,117.526947 7.602912,125.790924 2.945029,137.738800 
	C2.752965,138.231461 2.166151,138.570221 1.381623,138.990341 
	C1.000000,93.073006 1.000000,47.146019 1.000000,1.000000 
	C46.687328,1.000000 92.375008,1.000000 138.531342,0.999999 
z"/>
<path fill="#000000" opacity="1.000000" stroke="none" 
	d="
M727.468628,481.000000 
	C727.825745,480.333527 728.577759,479.216034 729.488098,479.067261 
	C746.935120,476.216583 763.028503,469.851135 777.092407,459.234131 
	C795.231567,445.540680 807.464478,427.402466 813.883362,405.606659 
	C816.210144,397.705963 817.337891,389.453339 819.069702,381.373505 
	C819.176880,380.873413 819.784363,380.480560 820.579529,380.018921 
	C821.000000,413.590973 821.000000,447.181946 821.000000,481.000000 
	C789.979492,481.000000 758.958374,481.000000 727.468628,481.000000 
z"/>
<path fill="#7462F4" opacity="1.000000" stroke="none" 
	d="
M405.000000,415.000000 
	C429.797302,415.000000 454.094574,415.000000 478.395172,415.000000 
	C478.395172,434.689575 478.395172,454.060150 478.395172,473.713593 
	C407.062683,473.713593 336.334320,473.713593 265.277496,473.713593 
	C265.185181,472.605591 265.013641,471.497589 265.012421,470.389374 
	C264.994812,454.561951 264.908722,438.733368 265.114197,422.908630 
	C265.140289,420.898254 266.188690,418.302734 267.665558,417.005005 
	C278.638733,407.363495 289.888794,398.038208 300.950867,388.496490 
	C307.439026,382.900024 313.696106,377.036591 320.137726,371.385071 
	C333.117218,359.997589 346.180359,348.705414 359.151459,337.308411 
	C365.693573,331.560211 372.109924,325.668915 379.208160,319.279694 
	C376.970642,319.162323 375.423431,319.011353 373.876190,319.010437 
	C348.718964,318.995697 323.559967,319.156067 298.405914,318.873444 
	C293.128540,318.814117 287.761383,317.534821 282.624390,316.128235 
	C272.174469,313.266968 267.606018,305.807434 265.820648,295.310150 
	C263.524780,281.811859 268.144409,269.981415 272.520111,257.881866 
	C273.682648,254.667267 276.026184,254.989700 278.513794,254.990768 
	C310.835022,255.004730 343.156250,255.000000 375.477478,255.000000 
	C398.135651,255.000000 420.797180,254.770874 443.450470,255.104172 
	C453.599976,255.253510 463.674835,257.601257 470.186432,266.055267 
	C473.887970,270.860992 476.758087,277.093964 477.731232,283.054993 
	C479.941589,296.594666 475.699890,308.889252 465.864075,318.471375 
	C449.701019,334.217499 433.153046,349.575409 416.548126,364.858795 
	C405.285858,375.224762 393.705933,385.249176 382.158051,395.299927 
	C374.751129,401.746552 367.144165,407.963348 358.774261,415.000000 
	C374.507446,415.000000 389.503723,415.000000 405.000000,415.000000 
z"/>
<path fill="#7462F4" opacity="1.000000" stroke="none" 
	d="
M496.000000,283.206512 
	C496.508972,269.011414 504.830719,260.204803 518.727966,257.160431 
	C533.960999,253.823471 549.037354,256.188782 563.623718,261.397675 
	C564.704102,261.783478 565.880737,263.740051 565.897095,264.981079 
	C566.063782,277.637329 566.127197,290.298309 565.965881,302.954681 
	C565.773499,318.044434 565.096130,333.130219 565.045776,348.219116 
	C564.911316,388.525848 565.000000,428.833344 565.000000,469.140533 
	C565.000000,470.936035 565.000000,472.731506 565.000000,474.328156 
	C541.570740,474.328156 518.574280,474.328156 496.000000,474.328156 
	C496.000000,410.329254 496.000000,347.003754 496.000000,283.206512 
z"/>
<path fill="#7462F4" opacity="1.000000" stroke="none" 
	d="
M528.172729,159.000000 
	C539.870850,158.131256 549.612549,161.563248 557.769165,169.293121 
	C573.430786,184.135315 571.992126,211.244339 558.276978,225.597046 
	C544.295532,240.228439 517.400024,240.338043 504.224060,226.246902 
	C496.647217,218.143814 493.009644,208.938171 492.092804,198.444687 
	C490.399811,179.067505 508.431213,159.330856 528.172729,159.000000 
z"/>
<path fill="#000000" opacity="1.000000" stroke="none" 
	d="
M698.639160,416.306091 
	C677.003845,415.354858 659.876221,399.984619 656.033875,378.145416 
	C653.926941,366.169800 654.286072,354.323944 658.972229,342.887817 
	C665.099365,327.935272 675.956909,318.267975 691.822754,315.103577 
	C707.403503,311.996094 721.896179,314.319946 734.741150,324.832733 
	C742.601868,331.266235 747.592957,339.498718 749.630249,348.812805 
	C752.939819,363.944397 752.839661,379.330475 744.824524,393.366882 
	C737.326599,406.497498 726.048706,414.472137 710.708374,415.971191 
	C706.834778,416.349731 702.924622,416.355072 698.639160,416.306091 
z"/>
<path fill="#000000" opacity="1.000000" stroke="none" 
	d="
M76.265808,158.328369 
	C63.074081,161.941589 50.108746,164.390045 36.709606,164.041290 
	C27.339075,163.797394 21.956697,158.967712 22.022182,150.112411 
	C22.089861,140.960129 26.942427,136.162384 36.492577,136.122604 
	C53.914288,136.050003 70.867760,139.099747 86.994049,146.002090 
	C89.941170,147.263519 92.871536,148.564117 97.226387,150.465057 
	C89.438675,153.342636 83.019379,155.714569 76.265808,158.328369 
z"/>
<path fill="#000000" opacity="1.000000" stroke="none" 
	d="
M153.044891,91.793968 
	C152.228790,93.029594 151.488724,93.900185 150.455826,95.115257 
	C143.429596,80.536171 138.540207,65.764359 138.025238,49.792713 
	C137.837402,43.967258 137.153275,38.001778 138.095078,32.332691 
	C139.488998,23.942242 144.808838,20.966610 154.002930,22.004528 
	C160.055847,22.687838 164.871933,28.234022 164.971848,35.058918 
	C165.237595,53.211472 162.028900,70.721291 154.877670,87.457497 
	C154.308945,88.788513 153.707291,90.105453 153.044891,91.793968 
z"/>
<path fill="#000000" opacity="1.000000" stroke="none" 
	d="
M267.375061,164.821686 
	C245.635605,164.863129 225.189667,161.074402 205.668533,150.728317 
	C219.408066,143.370255 233.436157,139.256516 248.309616,138.015274 
	C253.562317,137.576935 258.827576,137.144958 264.093536,137.043152 
	C272.394562,136.882690 278.215393,140.957474 278.922943,147.565414 
	C279.682007,154.654724 278.882263,162.459641 267.375061,164.821686 
z"/>
<path fill="#000000" opacity="1.000000" stroke="none" 
	d="
M140.954834,229.897736 
	C143.335938,222.930771 145.628723,216.361191 148.082123,209.852158 
	C148.487274,208.777283 149.595825,207.967560 150.379318,207.035309 
	C151.257767,208.054108 152.474579,208.933029 152.962418,210.113266 
	C157.940231,222.156067 162.313766,234.376907 163.004440,247.575256 
	C163.331940,253.833298 163.858963,260.088165 163.948502,266.349426 
	C164.047150,273.247620 158.907379,278.565491 152.306488,279.012726 
	C144.857635,279.517456 137.642487,276.605286 136.899506,267.939178 
	C135.797058,255.080627 137.551285,242.638931 140.954834,229.897736 
z"/>
<path fill="#000000" opacity="1.000000" stroke="none" 
	d="
M150.133881,135.038101 
	C155.977905,139.998550 161.455780,144.980286 167.341049,150.332520 
	C162.246399,155.365662 157.561920,160.204056 152.575104,164.707611 
	C151.768433,165.436127 149.021301,165.300598 148.187866,164.502594 
	C143.419846,159.937317 138.959167,155.051041 134.980347,150.887222 
	C139.800476,145.727966 144.784103,140.393677 150.133881,135.038101 
z"/>
</svg>