<?xml version="1.0" encoding="UTF-8"?>
<!-- Generator: visioncortex VTracer 0.6.4 -->
<svg version="1.1" xmlns="http://www.w3.org/2000/svg" width="546" height="546">
<path d="M0 0 C6.7836518 4.96641783 11.59832784 10.87897016 16 18 C16.38929688 18.61101563 16.77859375 19.22203125 17.1796875 19.8515625 C18.31941001 21.85712072 19.17167057 23.84563247 20 26 C20.37253906 26.96679688 20.74507813 27.93359375 21.12890625 28.9296875 C28.00136929 50.81620742 24.54924721 77.74632764 21 100 C20.84966309 100.96180176 20.69932617 101.92360352 20.54443359 102.91455078 C15.43809497 134.08813826 3.93161241 167.65905053 -14.11791992 193.78344727 C-15.27166602 196.03649348 -15.27166602 196.03649348 -14.28710938 198.61767578 C-12.66293633 201.62387467 -10.65869886 203.8297689 -8.3125 206.3125 C-5.35994824 209.46185346 -2.45060399 212.61899822 0.3125 215.9375 C6.7232274 223.32743159 14.2985167 229.98768962 22 236 C25.66004405 234.61169315 29.04519013 232.96737765 32.48046875 231.09375 C68.47658712 211.74213684 108.17652262 198.14223791 149.453125 197.76171875 C150.31580994 197.753647 151.17849487 197.74557526 152.06732178 197.73725891 C153.87900862 197.72354021 155.69071998 197.71276451 157.50244141 197.70483398 C159.32706462 197.69332268 161.15165438 197.67288425 162.97607422 197.64331055 C182.63041457 197.32607638 198.95351764 200.63961104 213.71484375 214.65234375 C227.1131029 228.41705102 231.98147209 245.10153421 232 264 C230.90698633 281.40872681 223.79112699 296.74528199 211.3125 308.875 C197.3206202 320.63942444 181.16008999 323.57412033 163.3125 323.375 C162.64802856 323.37034729 161.98355713 323.36569458 161.2989502 323.36090088 C115.64251658 322.99084547 72.51807546 310.59183193 32.50390625 288.9453125 C31.59342529 288.45466309 31.59342529 288.45466309 30.66455078 287.95410156 C29 287 29 287 26.33984375 285.1171875 C24.05609285 283.74476037 24.05609285 283.74476037 21.58984375 284.44921875 C18.1511884 286.50826275 15.43449019 289.03456329 12.5625 291.8125 C11.46099633 292.86210715 10.3581397 293.91029634 9.25390625 294.95703125 C8.44530151 295.72515137 8.44530151 295.72515137 7.62036133 296.50878906 C6.05331515 297.95093431 4.44530351 299.31234911 2.796875 300.66015625 C0.52190646 302.56337714 -1.39790542 304.37893814 -3.3125 306.625 C-3.88742187 307.29789062 -4.46234375 307.97078125 -5.0546875 308.6640625 C-8.73505168 313.08345563 -12.37831349 317.53243206 -16 322 C-15.5153125 322.8971875 -15.030625 323.794375 -14.53125 324.71875 C-12.333369 328.80155768 -10.16180582 332.89799215 -8 337 C-7.48759766 337.96945557 -7.48759766 337.96945557 -6.96484375 338.95849609 C14.62471916 380.07391369 33.94920081 441.5695086 20.42919922 487.95849609 C17.6906892 496.32172106 14.00829616 503.48994035 8 510 C7.42894531 510.67289063 6.85789062 511.34578125 6.26953125 512.0390625 C-4.47986468 523.91152965 -19.86993306 529.43645196 -35.5 530.875 C-54.27640654 531.65249095 -72.18529956 525.78428105 -86.125 512.96875 C-101.34597227 496.98672912 -103.70508354 477.18759776 -103.28515625 456.09375 C-101.87486481 413.60798281 -91.61511736 370.81992684 -69.6875 334.08203125 C-69.31117432 333.4478125 -68.93484863 332.81359375 -68.54711914 332.16015625 C-67.5055489 330.42581003 -66.43914315 328.70644767 -65.37109375 326.98828125 C-63.82273159 324.15979363 -63.82273159 324.15979363 -63.99609375 321.4375 C-65.3287867 318.20170077 -67.20649 316.21195681 -69.625 313.6875 C-70.55027386 312.71038733 -71.47475115 311.73251976 -72.3984375 310.75390625 C-73.25695312 309.84511719 -74.11546875 308.93632812 -75 308 C-76.09060533 306.71446747 -77.17483241 305.42347162 -78.25 304.125 C-84.96767928 296.37877653 -92.91297189 289.28651996 -101 283 C-104.8186419 284.36698465 -108.17856232 286.19546098 -111.66918945 288.22338867 C-148.83604718 309.73368187 -191.20014702 320.65594181 -234 322 C-234.6707959 322.02191406 -235.3415918 322.04382813 -236.03271484 322.06640625 C-257.23782253 322.67501972 -276.70353988 319.79153812 -292.6875 304.875 C-306.66336391 290.12269921 -310.53751143 273.27347394 -310.27734375 253.67578125 C-309.71703151 236.91937895 -302.67126576 223.71265323 -291 212 C-290.18789063 211.15308594 -290.18789063 211.15308594 -289.359375 210.2890625 C-274.62671258 196.22606655 -254.39472535 195.34020603 -235.234375 195.71875 C-191.68869096 197.12723574 -146.06643709 208.02054459 -109.26123047 232.09155273 C-106.64663096 233.75199495 -104.6195867 234.96723803 -101.48828125 235.1328125 C-97.72857389 233.42117178 -94.9254792 230.87768133 -91.875 228.125 C-90.8847583 227.24642334 -90.8847583 227.24642334 -89.87451172 226.35009766 C-75.74090603 213.75211283 -75.74090603 213.75211283 -64 199 C-64 194.53833094 -64.86051146 192.93409078 -66.96484375 189.07421875 C-67.6027354 187.88537101 -68.24008248 186.69623095 -68.87695312 185.50683594 C-69.213479 184.88450073 -69.55000488 184.26216553 -69.89672852 183.62097168 C-90.05587581 146.17073311 -101.42436109 104.92850191 -101.31567383 62.28686523 C-101.31248101 59.67195084 -101.33621182 57.05813792 -101.36132812 54.44335938 C-101.43401928 35.66429203 -97.31627565 19.37992775 -83.86328125 5.5390625 C-60.26766555 -15.38474405 -26.32286465 -16.91442945 0 0 Z M-60.84375 36.05859375 C-63.70850925 40.86867938 -64.26825234 45.55860596 -64.3359375 51.07421875 C-64.34431641 51.74711441 -64.35269531 52.42001007 -64.36132812 53.11329651 C-64.38090543 55.30493512 -64.38089202 57.49578804 -64.375 59.6875 C-64.37445618 60.44131958 -64.37391235 61.19513916 -64.37335205 61.97180176 C-64.25831142 96.80978476 -55.32088924 129.84597295 -40 161 C-39.34 161 -38.68 161 -38 161 C-25.77232645 136.1952908 -17.35998848 110.5334102 -14 83 C-13.85860596 81.87803223 -13.85860596 81.87803223 -13.71435547 80.73339844 C-12.88419105 73.45349512 -12.78105662 66.19659931 -12.75 58.875 C-12.729375 57.65167969 -12.70875 56.42835937 -12.6875 55.16796875 C-12.65091424 46.70751082 -13.34526917 40.8346112 -18.25 33.75 C-24.25831355 27.74168645 -30.25991364 25.86612222 -38.625 25.625 C-48.14109785 25.71402794 -54.76938184 28.73050425 -60.84375 36.05859375 Z M-41.48046875 230.25 C-42.32544922 231.11625 -42.32544922 231.11625 -43.1875 232 C-43.82042969 232.64839844 -44.45335937 233.29679688 -45.10546875 233.96484375 C-46.80194397 235.7872429 -48.40375497 237.65278049 -50 239.5625 C-55.30791327 245.74896443 -61.50463823 251.11749782 -67.50708008 256.61474609 C-68.6956396 257.71758939 -69.85349726 258.85349726 -71 260 C-70.55011719 260.38929688 -70.10023438 260.77859375 -69.63671875 261.1796875 C-67.41641432 263.11077392 -65.20677301 265.05345965 -63 267 C-62.09765625 267.79535156 -61.1953125 268.59070313 -60.265625 269.41015625 C-54.76999576 274.32130558 -49.68191372 279.30873865 -45 285 C-44.49339844 285.60328125 -43.98679687 286.2065625 -43.46484375 286.828125 C-42.30313881 288.21311028 -41.15038301 289.60559636 -40 291 C-39.28070313 290.28070313 -38.56140625 289.56140625 -37.8203125 288.8203125 C-27.88020833 278.88020833 -17.94010417 268.94010417 -8 259 C-8.47308594 258.5875 -8.94617188 258.175 -9.43359375 257.75 C-10.84029483 256.5215359 -12.24507727 255.29087296 -13.6484375 254.05859375 C-15.18888119 252.7100658 -16.73556191 251.36862178 -18.2890625 250.03515625 C-23.9986868 245.08092898 -28.89695439 239.76798396 -33.6953125 233.94140625 C-34.22898437 233.30074219 -34.76265625 232.66007813 -35.3125 232 C-35.78300781 231.4225 -36.25351562 230.845 -36.73828125 230.25 C-38.60751868 228.39812391 -39.51594995 228.59130339 -41.48046875 230.25 Z M-267 240 C-273.277213 248.02088328 -273.86654649 256.1124824 -273 266 C-271.31378665 273.27846522 -267.00348233 277.77710962 -261 282 C-238.07046105 294.01071088 -195.33782091 281.5089485 -172.34643555 274.51928711 C-160.53644024 270.71631252 -149.03501967 265.66128859 -138 260 C-140.73973717 257.00815187 -143.10037294 255.24162875 -146.83203125 253.66796875 C-147.78360107 253.26529785 -148.7351709 252.86262695 -149.71557617 252.44775391 C-150.73756104 252.03187012 -151.7595459 251.61598633 -152.8125 251.1875 C-154.41025269 250.53273682 -154.41025269 250.53273682 -156.0402832 249.86474609 C-183.57930204 238.80690516 -212.02634446 233.00388566 -241.6875 232.6875 C-243.19340698 232.66091309 -243.19340698 232.66091309 -244.72973633 232.63378906 C-253.3601979 232.64248693 -260.09900664 234.51057347 -267 240 Z M59 259 C59 259.66 59 260.32 59 261 C91.64347685 276.91166917 125.77521715 285.94980545 162.125 286.3125 C163.27589111 286.33030518 164.42678223 286.34811035 165.61254883 286.36645508 C174.61119313 286.35788557 181.67149504 285.08247263 188.4609375 278.7890625 C193.496346 272.93571963 195.10721237 265.57634051 195 258 C194.09761375 249.39262343 190.38469531 243.94575037 183.9765625 238.296875 C153.21114246 218.11086818 87.93099292 244.82971775 59 259 Z M-40 358 C-56.93650508 390.28933696 -66.05269989 425.11299248 -66.25 461.6875 C-66.270625 462.65494141 -66.29125 463.62238281 -66.3125 464.61914062 C-66.35556077 472.59076601 -65.29848743 480.56259135 -59.6328125 486.65234375 C-53.34558889 491.84155941 -46.09973691 494.23252833 -38 494 C-29.37077525 493.07992111 -23.6998111 489.40952667 -18.25390625 482.7265625 C-8.59929773 469.43267788 -14.12847566 442.04618516 -16.48876953 426.85400391 C-20.65141994 402.64069602 -27.77016218 379.88927118 -39 358 C-39.33 358 -39.66 358 -40 358 Z " fill="#802BE7" transform="translate(312,11)"/>
</svg>
